<svg width="24" height="24" viewBox="0 0 24 24" fill="none" xmlns="http://www.w3.org/2000/svg">
<path d="M20.1016 12.5292C20.1016 17.2074 16.2733 20.9998 11.5508 20.9998C6.82832 20.9998 3 17.2074 3 12.5292C3 7.85101 6.82832 4.05859 11.5508 4.05859" stroke="white" stroke-width="1.5" stroke-linecap="round"/>
<path d="M16.5781 12.5294C16.5781 12.1152 16.2424 11.7794 15.8281 11.7794C15.4139 11.7794 15.0781 12.1152 15.0781 12.5294H15.8281H16.5781ZM11.5527 9.04412C11.967 9.04412 12.3027 8.70833 12.3027 8.29412C12.3027 7.8799 11.967 7.54412 11.5527 7.54412V8.29412V9.04412ZM15.8595 9.148C16.1538 8.85649 16.156 8.38162 15.8645 8.08735C15.573 7.79308 15.0981 7.79084 14.8039 8.08235L15.3317 8.61518L15.8595 9.148ZM11.0249 11.8259C10.7307 12.1174 10.7284 12.5922 11.0199 12.8865C11.3114 13.1808 11.7863 13.183 12.0806 12.8915L11.5527 12.3587L11.0249 11.8259ZM21.0019 5.99481L21.5298 6.52763C21.7322 6.32713 21.8035 6.02927 21.7139 5.75884C21.6242 5.48842 21.3891 5.29212 21.107 5.2522L21.0019 5.99481ZM17.6009 9.36396L17.3657 10.0761C17.6335 10.1646 17.9283 10.0953 18.1287 9.89678L17.6009 9.36396ZM14.5777 6.36916L14.0499 5.83633C13.8466 6.03769 13.7756 6.33717 13.8669 6.60835L14.5777 6.36916ZM17.9788 3L18.7211 2.89295C18.6807 2.61259 18.4857 2.37892 18.2172 2.28889C17.9486 2.19886 17.6522 2.26783 17.451 2.46718L17.9788 3ZM15.3335 8.61526L14.6227 8.85445C14.698 9.07819 14.8742 9.25342 15.0983 9.32744L15.3335 8.61526ZM18.3567 5.62045L17.6144 5.7275C17.6619 6.05742 17.9215 6.31635 18.2516 6.36306L18.3567 5.62045ZM15.8281 12.5294H15.0781C15.0781 14.4476 13.5065 16.0147 11.5527 16.0147V16.7647V17.5147C14.3215 17.5147 16.5781 15.2894 16.5781 12.5294H15.8281ZM11.5527 16.7647V16.0147C9.59904 16.0147 8.02734 14.4476 8.02734 12.5294H7.27734H6.52734C6.52734 15.2894 8.78397 17.5147 11.5527 17.5147V16.7647ZM7.27734 12.5294H8.02734C8.02734 10.6112 9.59904 9.04412 11.5527 9.04412V8.29412V7.54412C8.78397 7.54412 6.52734 9.76946 6.52734 12.5294H7.27734ZM15.3317 8.61518L14.8039 8.08235L11.0249 11.8259L11.5527 12.3587L12.0806 12.8915L15.8595 9.148L15.3317 8.61518ZM21.0019 5.99481L20.4741 5.46198L17.0731 8.83114L17.6009 9.36396L18.1287 9.89678L21.5298 6.52763L21.0019 5.99481ZM14.5777 6.36916L15.1055 6.90198L18.5066 3.53282L17.9788 3L17.451 2.46718L14.0499 5.83633L14.5777 6.36916ZM17.6009 9.36396L17.836 8.65178L15.5687 7.90308L15.3335 8.61526L15.0983 9.32744L17.3657 10.0761L17.6009 9.36396ZM15.3335 8.61526L16.0443 8.37607L15.2886 6.12997L14.5777 6.36916L13.8669 6.60835L14.6227 8.85445L15.3335 8.61526ZM17.9788 3L17.2365 3.10705L17.6144 5.7275L18.3567 5.62045L19.099 5.5134L18.7211 2.89295L17.9788 3ZM18.3567 5.62045L18.2516 6.36306L20.8969 6.73741L21.0019 5.99481L21.107 5.2522L18.4618 4.87785L18.3567 5.62045Z" fill="#8D8D8D"/>
</svg>
