<svg width="24" height="24" viewBox="0 0 24 24" fill="none" xmlns="http://www.w3.org/2000/svg">
<path d="M11.4 21.6003H5.39999C4.0745 21.6003 2.99999 20.5258 3 19.2003L3.00009 4.80038C3.0001 3.4749 4.07462 2.40039 5.40009 2.40039H16.2004C17.5258 2.40039 18.6004 3.47491 18.6004 4.80039V9.60039" stroke="white" stroke-width="1.5" stroke-linecap="round" stroke-linejoin="round"/>
<path d="M19.8028 19.8002L21.0028 21.0002M7.20312 7.2002H14.4031M7.20312 10.8002H14.4031M7.20312 14.4002H10.8031M20.4028 17.4002C20.4028 19.057 19.0596 20.4002 17.4028 20.4002C15.7459 20.4002 14.4028 19.057 14.4028 17.4002C14.4028 15.7433 15.7459 14.4002 17.4028 14.4002C19.0596 14.4002 20.4028 15.7433 20.4028 17.4002Z" stroke="#8D8D8D" stroke-width="1.5" stroke-linecap="round" stroke-linejoin="round"/>
</svg>
