<svg width="57" height="40" viewBox="0 0 57 40" fill="none" xmlns="http://www.w3.org/2000/svg">
<path d="M39.607 13.5819L39.2039 13.4747C38.7726 13.3407 38.3919 13.079 38.1121 12.7241C37.7963 12.3908 37.5346 12.01 37.3366 11.5957V11.5497C38.1376 11.7182 39.2396 11.9684 40.3468 12.2135C40.1886 12.7241 40.0305 13.1836 39.8723 13.6483C39.8723 13.6227 39.6529 13.587 39.6274 13.5819M44.056 12.0093C43.5458 11.902 42.7652 11.7335 41.9182 11.5446C42.0049 11.2332 42.0968 10.9217 42.1835 10.6051C43.5407 10.9319 44.9233 11.2638 46.0305 11.5395C45.8111 12.0107 45.5426 12.4574 45.2294 12.8722C44.209 14.1895 42.5203 14.3631 41.1478 14.0619C41.3213 13.5513 41.4896 13.0407 41.658 12.5046C42.556 12.7037 43.3774 12.8875 43.9284 13.0151H44.01C44.4692 13.0151 44.5764 12.1216 44.0815 11.994M42.4947 9.55841L42.755 8.61891C44.1427 8.94569 45.5509 9.27247 46.6631 9.54309C46.6111 9.87257 46.5378 10.1983 46.4437 10.5183L42.4947 9.55841ZM37.107 10.4571C37.0563 9.8522 37.1063 9.24312 37.2549 8.65466C37.4934 7.66324 37.9579 6.74051 38.6121 5.95872C38.6937 5.87191 38.7703 5.78 38.857 5.69831C38.8991 5.65026 38.9452 5.60585 38.9948 5.56555C39.709 5.76979 40.9693 6.07616 42.158 6.40804C42.0662 6.70929 41.9692 7.01054 41.8774 7.31179C40.9029 7.08202 39.9743 6.85736 39.209 6.66844C38.4437 6.47951 38.3978 7.57729 39.1019 7.75089L41.5611 8.33809C41.4692 8.64955 41.3774 8.9559 41.2805 9.26736L38.7294 8.63934C38.0254 8.46574 37.9284 9.5431 38.6274 9.71159C39.3264 9.88009 40.1172 10.0792 40.9947 10.2886C40.8978 10.6102 40.7958 10.9268 40.6988 11.2434C39.3417 10.937 37.9692 10.6307 37.1274 10.4571M44.9539 6.12211L43.5917 5.74937C43.755 5.20303 43.9284 4.67202 44.1019 4.15631C44.8097 4.4226 45.4297 4.88044 45.8927 5.47875C46.4552 6.37474 46.7376 7.41834 46.7039 8.47595C45.6427 8.21554 44.3162 7.90407 42.9947 7.59261C43.0764 7.29647 43.158 7.00543 43.2447 6.71439C43.7549 6.85225 44.2396 6.97991 44.5662 7.07692H44.6325C45.0049 7.07692 45.2703 6.23444 44.8876 6.12211M39.9386 4.80477C40.8034 4.20912 41.846 3.928 42.8927 4.00824C42.7295 4.47799 42.5713 4.96305 42.4131 5.45833L39.9386 4.80477ZM42.5764 0.0409185C42.3025 0.123353 42.0695 0.30554 41.9233 0.551514L41.8162 0.740431C41.682 0.996415 41.6492 1.2936 41.7243 1.5727C41.7788 1.76499 41.8805 1.94055 42.0203 2.0833C41.3525 2.12926 40.6955 2.27556 40.0713 2.51729C40.1353 2.31111 40.1353 2.09035 40.0713 1.88416L39.9846 1.58802C39.9042 1.31159 39.7218 1.0761 39.4744 0.929349C39.2193 0.792597 38.9214 0.759675 38.6427 0.837446C38.5056 0.875155 38.3772 0.93969 38.2651 1.02733C38.153 1.11497 38.0594 1.22398 37.9896 1.34804C37.8513 1.60257 37.8165 1.90076 37.8927 2.18031C37.9233 2.27733 37.9488 2.37944 37.9795 2.47645C38.0598 2.75288 38.2422 2.98837 38.4897 3.13512C38.5517 3.16676 38.6166 3.1924 38.6835 3.21171C38.2017 3.52888 37.7552 3.89691 37.3519 4.30949C37.3458 4.22672 37.3321 4.14468 37.3111 4.0644C37.2718 3.92626 37.2055 3.79728 37.1161 3.68491C37.0267 3.57253 36.916 3.47899 36.7903 3.40968C36.6646 3.34037 36.5264 3.29667 36.3837 3.2811C36.2411 3.26552 36.0967 3.27838 35.959 3.31893C35.6842 3.39953 35.4506 3.58219 35.306 3.82953L35.1988 4.01844C35.1279 4.1442 35.0827 4.28284 35.0658 4.42628C35.049 4.56971 35.0609 4.71506 35.1008 4.85385C35.1406 4.99264 35.2078 5.12208 35.2982 5.23463C35.3886 5.34718 35.5005 5.44059 35.6274 5.50939C35.83 5.61467 36.0581 5.66068 36.2856 5.64215L36.1835 5.79532C35.9187 6.23427 35.6966 6.69763 35.5203 7.17903C35.4212 7.02 35.2822 6.88973 35.1172 6.80119C33.8825 6.117 32.8213 8.03173 34.056 8.71593C34.2208 8.81677 34.4116 8.86711 34.6047 8.86076C34.7978 8.85441 34.9848 8.79164 35.1427 8.68018C35.0535 9.28731 35.0432 9.90344 35.1121 10.5132C34.8584 10.3724 34.5591 10.3382 34.2802 10.4181C34.0013 10.4981 33.7656 10.6857 33.6249 10.9396C33.4841 11.1935 33.45 11.4929 33.5298 11.7721C33.6097 12.0512 33.7972 12.2871 34.0509 12.4279L34.2448 12.5352C34.5006 12.6694 34.7975 12.7022 35.0764 12.6271C35.2719 12.5643 35.4477 12.4517 35.5866 12.3003C35.7601 12.6988 35.9793 13.0757 36.2396 13.4236C36.1721 13.4276 36.1053 13.4396 36.0407 13.4594C35.9022 13.4982 35.7728 13.5641 35.6599 13.6533C35.5471 13.7425 35.453 13.8533 35.3833 13.9791C35.3135 14.105 35.2694 14.2434 35.2535 14.3865C35.2376 14.5295 35.2502 14.6743 35.2907 14.8124C35.3712 15.0874 35.5537 15.3212 35.8009 15.466L35.9948 15.5732C36.2487 15.7122 36.5473 15.7452 36.8254 15.6648C37.1035 15.5845 37.3386 15.3974 37.4794 15.1443C37.5603 14.9856 37.6073 14.8117 37.6172 14.6337C37.8881 14.8011 38.1674 14.9545 38.4539 15.0933L38.8825 15.2975C38.715 15.3936 38.5759 15.5323 38.4791 15.6995C38.3823 15.8667 38.3313 16.0565 38.3313 16.2498C38.3313 16.443 38.3823 16.6328 38.4791 16.8C38.5759 16.9672 38.715 17.1059 38.8825 17.202C39.857 17.7432 40.7243 16.6506 40.4131 15.8336C40.9573 15.9703 41.5154 16.044 42.0764 16.0532C41.9538 16.2949 41.9283 16.5744 42.0049 16.8344C42.0855 17.1094 42.268 17.3432 42.5151 17.488L42.709 17.5952C42.8982 17.6998 43.1142 17.7458 43.3295 17.7275C43.5449 17.7092 43.75 17.6273 43.9188 17.4923C44.0876 17.3572 44.2126 17.1751 44.2779 16.9689C44.3432 16.7627 44.3459 16.5417 44.2856 16.334C44.219 16.1225 44.0954 15.9334 43.9284 15.7877C44.3731 15.6529 44.801 15.4679 45.2039 15.2362C45.2958 15.1852 45.3876 15.129 45.4794 15.0677C45.4834 15.1236 45.4954 15.1787 45.5151 15.2311C45.5955 15.5076 45.7779 15.743 46.0253 15.8898L46.2141 15.9919C46.3397 16.0616 46.4779 16.1059 46.6206 16.1222C46.7633 16.1386 46.9079 16.1266 47.046 16.087C47.1841 16.0474 47.3131 15.981 47.4255 15.8915C47.538 15.802 47.6317 15.6913 47.7014 15.5656C47.7711 15.4398 47.8153 15.3016 47.8316 15.1588C47.8479 15.0159 47.836 14.8713 47.7964 14.7331C47.7568 14.5949 47.6904 14.4658 47.601 14.3533C47.5117 14.2407 47.401 14.1469 47.2754 14.0772L47.0815 13.9751C47.0006 13.9276 46.9128 13.8931 46.8213 13.8729C47.1891 13.4741 47.5093 13.0337 47.7753 12.5607C47.873 12.75 48.0261 12.905 48.2141 13.0049C49.4488 13.684 50.51 11.7693 49.2753 11.0851C49.1374 11.0044 48.9824 10.9573 48.8228 10.9475C48.6633 10.9378 48.5038 10.9657 48.357 11.0289C48.4844 10.5538 48.5715 10.0687 48.6172 9.57883L48.6988 9.6299C49.9284 10.3141 50.9896 8.39936 49.7549 7.71516C49.5758 7.60586 49.3666 7.55635 49.1575 7.57379C48.9484 7.59123 48.7503 7.67471 48.5917 7.81218C48.5351 7.30439 48.4292 6.80333 48.2754 6.31612C48.4758 6.38235 48.6922 6.38235 48.8927 6.31612C49.1675 6.23552 49.4011 6.05286 49.5458 5.80553L49.6529 5.61661C49.7226 5.49089 49.7668 5.35266 49.7831 5.20982C49.7994 5.06698 49.7875 4.92233 49.7479 4.78412C49.7083 4.64591 49.642 4.51686 49.5526 4.40432C49.4632 4.29178 49.3525 4.19795 49.2269 4.12822C49.1013 4.05849 48.9631 4.01421 48.8204 3.99789C48.6777 3.98158 48.5331 3.99356 48.395 4.03315C48.2569 4.07274 48.128 4.13916 48.0155 4.22863C47.9031 4.3181 47.8093 4.42886 47.7397 4.55458L47.6325 4.74861L47.5968 4.82008C47.2753 4.29048 46.8704 3.81633 46.3978 3.41595C46.5115 3.42031 46.6252 3.40653 46.7345 3.37511C46.8726 3.33577 47.0014 3.26945 47.1137 3.18C47.226 3.09055 47.3195 2.97972 47.3888 2.85391C47.458 2.72811 47.5017 2.58983 47.5172 2.44705C47.5328 2.30426 47.52 2.1598 47.4794 2.02202C47.3989 1.74701 47.2164 1.5132 46.9692 1.36845L46.7805 1.26123C46.5257 1.12198 46.2264 1.08892 45.9475 1.16922C45.6685 1.24952 45.4325 1.43671 45.2907 1.69013C45.154 1.94534 45.1211 2.2435 45.1988 2.5224C45.2148 2.57513 45.2353 2.62639 45.26 2.67559C44.7031 2.40962 44.11 2.22723 43.4998 2.13435H43.4743C43.5834 2.04802 43.6737 1.94029 43.7396 1.81778L43.8468 1.62375C43.9176 1.49838 43.9627 1.36013 43.9795 1.21709C43.9963 1.07405 43.9844 0.92909 43.9445 0.790715C43.9046 0.65234 43.8375 0.523336 43.7471 0.411243C43.6567 0.299151 43.5449 0.206234 43.4182 0.137933C43.2488 0.0516947 43.0623 0.00457429 42.8723 6.21406e-05C42.7752 -8.98163e-05 42.6787 0.0154254 42.5866 0.0460138" fill="white"/>
<path d="M11.755 25.9945H9.16317V24.6618C8.19457 25.6665 6.86902 26.2481 5.4744 26.2804C3.29073 26.2804 0.80603 25.0447 0.80603 21.7361C0.80603 18.7338 3.11215 17.3756 6.16317 17.3756C7.18764 17.3371 8.20901 17.5109 9.16317 17.8862V16.865C9.16317 15.4047 8.26521 14.5827 6.61215 14.5827C5.38529 14.5413 4.17028 14.8342 3.09687 15.4302L2.07646 13.4287C3.46495 12.5839 5.06976 12.1633 6.6938 12.2186C9.6938 12.2186 11.7448 13.684 11.7448 16.7374L11.755 25.9945ZM9.29072 22.1752V20.2503C8.33244 19.8103 7.28258 19.6072 6.2295 19.658C4.53562 19.658 3.45909 20.429 3.45909 21.6595C3.45909 22.9922 4.30604 23.8908 6.05094 23.8908C6.68743 23.8679 7.31058 23.7018 7.87411 23.4047C8.43764 23.1077 8.92707 22.6875 9.30604 22.1752" fill="white"/>
<path d="M28.8672 10.7787C29.2055 10.7767 29.5355 10.6743 29.8156 10.4844C30.0956 10.2945 30.3131 10.0258 30.4404 9.71216C30.5677 9.39854 30.5992 9.05418 30.5309 8.72264C30.4626 8.39111 30.2974 8.08732 30.0565 7.84975C29.8155 7.61218 29.5095 7.4515 29.1773 7.38807C28.845 7.32463 28.5014 7.36128 28.19 7.49339C27.8785 7.62549 27.6132 7.84711 27.4277 8.13018C27.2422 8.41325 27.1448 8.74504 27.1478 9.08354C27.1519 9.53631 27.3352 9.969 27.6575 10.2868C27.9798 10.6045 28.4148 10.7814 28.8672 10.7787Z" fill="white"/>
<path d="M31.9386 21.5625V22.8186C31.4467 22.2897 30.8438 21.8764 30.1733 21.6084V12.525H27.5305V21.3838C26.4274 21.6064 25.4378 22.2101 24.7346 23.0892V7.28625L22.1172 8.64954V13.781C21.6843 13.3124 21.1619 12.9354 20.5809 12.6723C19.9999 12.4092 19.3721 12.2653 18.7346 12.2492C15.9386 12.2492 13.4285 14.4346 13.4285 19.0504C13.4285 24.187 15.7091 26.2906 18.607 26.2906C19.9359 26.2434 21.1945 25.6813 22.1172 24.7231V26.0047H23.4387C23.3075 26.693 23.2426 27.3923 23.2448 28.093C23.2448 33.2245 25.5254 35.3282 28.4233 35.3282C29.7539 35.2863 31.0154 34.7256 31.9386 33.7657V40.0001L34.556 38.6419V21.5625H31.9386ZM22.1478 22.1241C21.4539 22.9922 20.3519 23.8398 19.0866 23.8398C17.1376 23.8398 16.0611 22.3539 16.0611 18.9636C16.0611 16.1144 17.0815 14.6797 18.9846 14.6797C20.3213 14.6797 21.5356 15.6549 22.1427 16.4514L22.1478 22.1241ZM31.9641 31.1617C31.2703 32.0348 30.1682 32.8824 28.9029 32.8824C26.9539 32.8824 25.8774 31.3915 25.8774 28.0062C25.8774 25.1571 26.8978 23.7172 28.8009 23.7172C30.1325 23.7172 31.3519 24.6924 31.9539 25.489L31.9641 31.1617Z" fill="white"/>
<path d="M47.2856 35.0269H44.6989V33.6994C43.729 34.7053 42.4014 35.287 41.005 35.3179C38.8264 35.3179 36.3366 34.0874 36.3366 30.7787C36.3366 27.7713 38.6478 26.4131 41.6989 26.4131C42.7234 26.3729 43.7452 26.5468 44.6989 26.9237V25.9025C44.6989 24.4371 43.8009 23.6151 42.1478 23.6151C40.9229 23.5767 39.7103 23.8695 38.6376 24.4627L37.6172 22.4611C38.9985 21.6218 40.594 21.2031 42.2091 21.2561C45.2091 21.2561 47.2601 22.7164 47.2601 25.7698L47.2856 35.0269ZM44.6989 31.2025V29.2776C43.7394 28.8412 42.6904 28.6383 41.6376 28.6853C39.9438 28.6853 38.8672 29.4563 38.8672 30.6868C38.8672 32.0246 39.7141 32.9232 41.459 32.9232C42.096 32.9001 42.7196 32.7333 43.2832 32.4354C43.8468 32.1375 44.336 31.716 44.7141 31.2025" fill="white"/>
<path d="M56.806 32.3667L56.4999 34.7052C55.7007 35.1229 54.8096 35.3335 53.9081 35.3179C52.0356 35.3179 50.8826 34.164 50.8826 31.7438V23.9776H48.9591V21.5625H50.8826V17.7126L53.4744 16.3289V21.5625H56.806V23.9776H53.4744V31.2893C53.4744 32.5454 53.8826 32.9079 54.8571 32.9079C55.5409 32.8879 56.2097 32.7022 56.806 32.3667Z" fill="white"/>
</svg>
