<svg width="18" height="16" viewBox="0 0 18 16" fill="none" xmlns="http://www.w3.org/2000/svg">
<g clip-path="url(#clip0_2120_3733)">
<path d="M3.70165 0.00164795H14.2978C15.9043 0.00164795 17.2032 1.30053 17.2032 2.90703V13.093C17.2032 14.6995 15.9043 15.9984 14.2978 15.9984H3.70165C2.09514 15.9984 0.796265 14.6995 0.796265 13.093V2.90703C0.796265 1.30053 2.09514 0.00164795 3.70165 0.00164795Z" fill="#470137"/>
<path d="M9.42352 4.20594L7.37266 7.58986L9.56024 11.1789C9.57392 11.2062 9.58075 11.2336 9.57392 11.2609C9.56708 11.2882 9.53973 11.2677 9.49872 11.2746H7.93323C7.82385 11.2746 7.74865 11.2677 7.7008 11.1994C7.55724 10.9123 7.40684 10.632 7.26328 10.3449C7.11972 10.0646 6.96249 9.77745 6.79842 9.48349C6.63435 9.18953 6.47028 8.89558 6.30621 8.59478H6.29254C6.14898 8.88874 5.99174 9.1827 5.83451 9.47665C5.67728 9.77061 5.52005 10.0646 5.36965 10.3517C5.21242 10.6388 5.05518 10.9328 4.89795 11.213C4.87061 11.2814 4.81592 11.2882 4.74072 11.2882H3.23675C3.20941 11.2882 3.1889 11.3019 3.1889 11.2677C3.18206 11.2404 3.1889 11.213 3.20257 11.1925L5.32863 7.70608L3.25726 4.1991C3.23675 4.17176 3.22992 4.14441 3.24359 4.13074C3.25726 4.11023 3.28461 4.1034 3.31195 4.1034H4.86377C4.89795 4.1034 4.93213 4.11023 4.95948 4.11707C4.98682 4.13074 5.00733 4.15125 5.02784 4.17859C5.15773 4.47255 5.30812 4.76651 5.46536 5.06046C5.62943 5.35442 5.78666 5.64154 5.95756 5.92866C6.12163 6.21578 6.27203 6.5029 6.41559 6.79686H6.42926C6.57282 6.49607 6.72322 6.20211 6.87361 5.91499C7.02401 5.62787 7.18124 5.34075 7.33848 5.05363C7.49571 4.76651 7.64611 4.47255 7.7965 4.19227C7.80334 4.16492 7.81701 4.13758 7.83752 4.1239C7.86486 4.11023 7.89221 4.1034 7.92639 4.11023H9.36883C9.40301 4.1034 9.43719 4.1239 9.44403 4.15809C9.45086 4.16492 9.43719 4.19227 9.42352 4.20594ZM12.5818 11.4181C12.076 11.425 11.5701 11.3224 11.1121 11.1105C10.6814 10.9123 10.3259 10.5841 10.0798 10.1808C9.82686 9.76377 9.7038 9.24422 9.7038 8.62213C9.69697 8.11625 9.82686 7.6172 10.0798 7.17969C10.3396 6.73533 10.7156 6.36618 11.1668 6.12008C11.6453 5.85346 12.2195 5.72358 12.8963 5.72358C12.9305 5.72358 12.9783 5.72358 13.0399 5.73041C13.1014 5.73725 13.1698 5.73725 13.2518 5.74408V3.58384C13.2518 3.53599 13.2723 3.50865 13.3202 3.50865H14.7079C14.7421 3.50181 14.7694 3.52915 14.7763 3.5565V10.0782C14.7763 10.2013 14.7831 10.338 14.7899 10.4884C14.8036 10.632 14.8104 10.7687 14.8173 10.8849C14.8173 10.9328 14.7968 10.9738 14.7489 10.9943C14.3934 11.1447 14.0174 11.2541 13.6346 11.3224C13.286 11.384 12.9373 11.4181 12.5818 11.4181ZM13.2518 10.0509V7.04296C13.1903 7.02929 13.1287 7.01562 13.0672 7.00878C12.992 7.00195 12.9168 6.99511 12.8416 6.99511C12.575 6.99511 12.3084 7.0498 12.0691 7.17285C11.8367 7.28907 11.6384 7.45997 11.4881 7.67873C11.3377 7.89749 11.2625 8.19145 11.2625 8.54693C11.2556 8.7862 11.2966 9.02546 11.3787 9.25106C11.447 9.43564 11.5496 9.5997 11.6863 9.73643C11.8162 9.85948 11.9734 9.95519 12.1512 10.0099C12.3357 10.0714 12.5272 10.0987 12.7186 10.0987C12.8211 10.0987 12.9168 10.0919 13.0057 10.0851C13.0946 10.0919 13.1698 10.0782 13.2518 10.0509Z" fill="#FF61F6"/>
</g>
<defs>
<clipPath id="clip0_2120_3733">
<rect width="16.4069" height="16" fill="white" transform="translate(0.79657)"/>
</clipPath>
</defs>
</svg>
