<svg width="16" height="16" viewBox="0 0 16 16" fill="none" xmlns="http://www.w3.org/2000/svg">
<path d="M3.5908 5.31001C3.5956 11.0441 3.5908 10.6375 3.67404 11.1257C3.73968 11.5083 3.88215 11.9966 4.03582 12.3647C4.34158 13.0931 4.75618 13.7078 5.32127 14.2729C6.29295 15.2446 7.45673 15.8049 8.86864 15.9793C9.09275 16.0066 9.92517 16.0066 10.1493 15.9793C10.8824 15.8881 11.4619 15.7216 12.0814 15.4239C13.8535 14.5706 15.0926 12.8818 15.3743 10.9336C15.4655 10.3029 15.4447 9.51051 15.3199 8.88459C15.123 7.9017 14.7276 7.04848 14.1129 6.27529C13.916 6.02877 13.4998 5.60936 13.2628 5.42046C13.0403 5.24117 12.6289 4.96744 12.3904 4.83937C11.7805 4.50961 11.1018 4.2951 10.3654 4.19905C10.0196 4.15423 9.28005 4.15903 8.96469 4.20706C7.7833 4.38955 6.77159 4.91461 5.91997 5.78384L5.73107 5.97434V0.000152588H3.586L3.5908 5.31001ZM9.74108 6.45138C10.3798 6.4978 10.9705 6.6915 11.4779 7.02446C12.8114 7.8953 13.4277 9.47529 13.0307 11.0073C12.6641 12.4272 11.4667 13.4869 9.9908 13.6966C9.76509 13.7286 9.29285 13.7334 9.07674 13.7046C8.13227 13.5797 7.30626 13.1283 6.70596 12.408C6.26734 11.8829 5.984 11.2266 5.88955 10.5174C5.86074 10.3013 5.86554 9.82907 5.89755 9.60335C5.9904 8.95183 6.25453 8.33072 6.65473 7.82326C6.77159 7.67439 7.09816 7.34783 7.24703 7.23097C7.81691 6.78274 8.52927 6.5042 9.24323 6.45298C9.50096 6.43377 9.49615 6.43377 9.74108 6.45138Z" fill="white"/>
<path d="M1.80064 13.0944C1.23556 13.1824 0.785732 13.5826 0.612846 14.1461C0.574427 14.2726 0.571225 14.3142 0.569624 14.5351C0.568024 14.7432 0.574427 14.804 0.603241 14.9113C0.7201 15.3403 1.02585 15.7037 1.41645 15.8814C1.62775 15.9774 1.74301 15.9998 2.02475 15.9998C2.30649 15.9998 2.42175 15.9774 2.63306 15.8814C2.94201 15.7405 3.23176 15.4476 3.36942 15.1354C3.45747 14.9353 3.48148 14.8056 3.47988 14.5351C3.47828 14.3142 3.47508 14.2726 3.43666 14.1461C3.27978 13.6339 2.89239 13.2545 2.39294 13.1264C2.24566 13.088 1.94631 13.072 1.80064 13.0944Z" fill="#0C4AD5"/>
</svg>
