<svg width="24" height="24" viewBox="0 0 24 24" fill="none" xmlns="http://www.w3.org/2000/svg">
<path d="M4.50001 9.50025C4.50013 8.24929 4.81315 7.01823 5.41058 5.91915C6.00801 4.82007 6.87087 3.88788 7.92059 3.20746C8.97032 2.52703 10.1736 2.11999 11.4208 2.02338C12.668 1.92677 13.9196 2.14367 15.0616 2.65432C16.2036 3.16498 17.1997 3.95317 17.9592 4.94714C18.7188 5.94111 19.2177 7.10928 19.4104 8.3453C19.6032 9.58132 19.4837 10.8459 19.0629 12.024C18.6421 13.202 17.9333 14.2561 17.001 15.0903C15.881 16.0933 15.321 16.5953 15.169 16.7803C14.682 17.3813 14.661 17.4303 14.539 18.1933C14.5 18.4303 14.5 18.7863 14.5 19.5003C14.5 20.4353 14.5 20.9023 14.299 21.2503C14.1674 21.4783 13.978 21.6676 13.75 21.7993C13.402 22.0003 12.935 22.0003 12 22.0003C11.065 22.0003 10.598 22.0003 10.25 21.7993C10.022 21.6676 9.83265 21.4783 9.70101 21.2503C9.50001 20.9023 9.50001 20.4353 9.50001 19.5003C9.50001 18.7873 9.50001 18.4303 9.46201 18.1933C9.33901 17.4303 9.31801 17.3813 8.83101 16.7813C8.68001 16.5953 8.11901 16.0933 6.99901 15.0893C6.21182 14.3866 5.58221 13.5254 5.15151 12.5621C4.72081 11.5989 4.49878 10.5554 4.50001 9.50025Z" stroke="white" stroke-width="1.5"/>
<path opacity="0.5" d="M14.5 19.5H9.5" stroke="white" stroke-width="1.5"/>
<path opacity="0.5" d="M12.7875 8.5L10.6445 11.5H13.6445L11.5015 14.5" stroke="white" stroke-width="1.5" stroke-linecap="round" stroke-linejoin="round"/>
</svg>
