<svg width="62" height="32" viewBox="0 0 62 32" fill="none" xmlns="http://www.w3.org/2000/svg">
<path d="M17.9689 21.2211H20.6637V31.7473H17.9689V21.2211ZM42.0531 24.2526C41.9689 24.1684 41.1268 23.6632 39.7794 23.6632C38.0952 23.6632 36.832 24.8421 36.832 26.4421C36.832 28.0421 38.011 29.221 39.7794 29.221C41.0425 29.221 41.8846 28.7158 42.0531 28.6316V31.4947C41.7162 31.5789 40.7899 31.8315 39.611 31.8315C36.5794 31.8315 33.9689 29.8105 33.9689 26.3579C33.9689 23.2421 36.3268 20.8842 39.611 20.8842C40.8741 20.8842 41.8004 21.2211 42.0531 21.2211V24.2526ZM14.2637 24.2526C14.1795 24.1684 13.3374 23.6632 11.99 23.6632C10.3058 23.6632 9.04265 24.8421 9.04265 26.4421C9.04265 28.0421 10.2216 29.221 11.99 29.221C13.2532 29.221 14.0953 28.7158 14.2637 28.6316V31.4947C13.9268 31.5789 13.0005 31.8315 11.8216 31.8315C8.87423 31.8315 6.1795 29.8105 6.1795 26.3579C6.1795 23.2421 8.53739 20.8842 11.8216 20.8842C13.0847 20.8842 14.0111 21.2211 14.2637 21.2211V24.2526ZM55.9478 26.5263C55.9478 29.5579 53.5899 32 50.3899 32C47.1899 32 44.832 29.5579 44.832 26.5263C44.832 23.4947 47.1899 21.0526 50.3899 21.0526C53.6741 21.0526 55.9478 23.4947 55.9478 26.5263ZM50.3899 23.7474C48.7899 23.7474 47.6109 25.0105 47.6109 26.5263C47.6109 28.0421 48.7899 29.3052 50.3899 29.3052C51.9899 29.3052 53.1688 28.0421 53.1688 26.5263C53.1688 25.0105 51.9899 23.7474 50.3899 23.7474ZM30.6847 23.6632C30.6847 23.6632 29.5057 23.3263 28.5794 23.3263C27.4847 23.3263 26.8952 23.6632 26.8952 24.1684C26.8952 24.8421 27.6531 25.0105 28.0742 25.1789L28.8321 25.4316C30.5163 26.021 31.3584 27.2 31.3584 28.4631C31.3584 31.0737 29.0005 32 26.9794 32C25.5479 32 24.2005 31.7473 24.1163 31.7473V29.3052C24.3689 29.3895 25.4636 29.7263 26.6426 29.7263C27.99 29.7263 28.5794 29.3052 28.5794 28.7158C28.5794 28.2105 28.0742 27.8737 27.4005 27.7052C27.2321 27.621 26.9794 27.5368 26.811 27.5368C25.2952 27.0316 24.1163 26.1895 24.1163 24.421C24.1163 22.4842 25.6321 21.1368 28.0742 21.1368C29.3373 21.1368 30.6005 21.4737 30.6847 21.4737V23.6632Z" fill="white"/>
<path d="M3.40059 9.93701C3.40285 9.75945 3.36954 9.58322 3.30263 9.41873C3.23572 9.25424 3.13656 9.10481 3.01099 8.97924C2.88542 8.85367 2.73599 8.75451 2.5715 8.6876C2.40701 8.62069 2.23079 8.58738 2.05322 8.58965C1.87566 8.58738 1.69943 8.62069 1.53494 8.6876C1.37045 8.75451 1.22102 8.85367 1.09545 8.97924C0.969883 9.10481 0.870721 9.25424 0.803811 9.41873C0.736901 9.58322 0.703595 9.75945 0.705857 9.93701V12.7159C0.703595 12.8935 0.736901 13.0697 0.803811 13.2342C0.870721 13.3987 0.969883 13.5482 1.09545 13.6737C1.22102 13.7993 1.37045 13.8984 1.53494 13.9654C1.69943 14.0323 1.87566 14.0656 2.05322 14.0633C2.23079 14.0656 2.40701 14.0323 2.5715 13.9654C2.73599 13.8984 2.88542 13.7993 3.01099 13.6737C3.13656 13.5482 3.23572 13.3987 3.30263 13.2342C3.36954 13.0697 3.40285 12.8935 3.40059 12.7159V9.93701Z" fill="white"/>
<path d="M10.6427 6.31588C10.645 6.13831 10.6117 5.96209 10.5448 5.7976C10.4779 5.63311 10.3787 5.48367 10.2531 5.35811C10.1276 5.23254 9.97814 5.13338 9.81364 5.06647C9.64915 4.99956 9.47293 4.96625 9.29537 4.96851C8.53747 4.96851 8.03221 5.55798 8.03221 6.31588V12.7159C8.02995 12.8934 8.06326 13.0696 8.13017 13.2341C8.19708 13.3986 8.29624 13.5481 8.4218 13.6736C8.54737 13.7992 8.69681 13.8984 8.8613 13.9653C9.02579 14.0322 9.20201 14.0655 9.37958 14.0632C9.55714 14.0655 9.73336 14.0322 9.89785 13.9653C10.0623 13.8984 10.2118 13.7992 10.3373 13.6736C10.4629 13.5481 10.5621 13.3986 10.629 13.2341C10.6959 13.0696 10.7292 12.8934 10.7269 12.7159V6.31588H10.6427ZM17.969 1.34747C17.9713 1.16991 17.938 0.993685 17.8711 0.829194C17.8042 0.664702 17.705 0.515269 17.5794 0.389701C17.4539 0.264133 17.3044 0.164972 17.1399 0.0980615C16.9754 0.0311512 16.7992 -0.00215427 16.6217 0.00010798C16.4441 -0.00215427 16.2679 0.0311512 16.1034 0.0980615C15.9389 0.164972 15.7895 0.264133 15.6639 0.389701C15.5383 0.515269 15.4392 0.664702 15.3722 0.829194C15.3053 0.993685 15.272 1.16991 15.2743 1.34747V15.3264C15.272 15.5039 15.3053 15.6802 15.3722 15.8447C15.4392 16.0091 15.5383 16.1586 15.6639 16.2841C15.7895 16.4097 15.9389 16.5089 16.1034 16.5758C16.2679 16.6427 16.4441 16.676 16.6217 16.6737C16.7992 16.676 16.9754 16.6427 17.1399 16.5758C17.3044 16.5089 17.4539 16.4097 17.5794 16.2841C17.705 16.1586 17.8042 16.0091 17.8711 15.8447C17.938 15.6802 17.9713 15.5039 17.969 15.3264V1.34747ZM25.2111 6.31588C25.2134 6.13831 25.1801 5.96209 25.1131 5.7976C25.0462 5.63311 24.9471 5.48367 24.8215 5.35811C24.6959 5.23254 24.5465 5.13338 24.382 5.06647C24.2175 4.99956 24.0413 4.96625 23.8637 4.96851C23.6862 4.96625 23.5099 4.99956 23.3455 5.06647C23.181 5.13338 23.0315 5.23254 22.906 5.35811C22.7804 5.48367 22.6812 5.63311 22.6143 5.7976C22.5474 5.96209 22.5141 6.13831 22.5164 6.31588V12.7159C22.5141 12.8934 22.5474 13.0696 22.6143 13.2341C22.6812 13.3986 22.7804 13.5481 22.906 13.6736C23.0315 13.7992 23.181 13.8984 23.3455 13.9653C23.5099 14.0322 23.6862 14.0655 23.8637 14.0632C24.0413 14.0655 24.2175 14.0322 24.382 13.9653C24.5465 13.8984 24.6959 13.7992 24.8215 13.6736C24.9471 13.5481 25.0462 13.3986 25.1131 13.2341C25.1801 13.0696 25.2134 12.8934 25.2111 12.7159V6.31588Z" fill="white"/>
<path d="M32.4532 9.93701C32.4555 9.75945 32.4222 9.58322 32.3552 9.41873C32.2883 9.25424 32.1892 9.10481 32.0636 8.97924C31.938 8.85367 31.7886 8.75451 31.6241 8.6876C31.4596 8.62069 31.2834 8.58738 31.1058 8.58965C30.9283 8.58738 30.752 8.62069 30.5876 8.6876C30.4231 8.75451 30.2736 8.85367 30.1481 8.97924C30.0225 9.10481 29.9233 9.25424 29.8564 9.41873C29.7895 9.58322 29.7562 9.75945 29.7585 9.93701V12.7159C29.7562 12.8935 29.7895 13.0697 29.8564 13.2342C29.9233 13.3987 30.0225 13.5482 30.1481 13.6737C30.2736 13.7993 30.4231 13.8984 30.5876 13.9654C30.752 14.0323 30.9283 14.0656 31.1058 14.0633C31.2834 14.0656 31.4596 14.0323 31.6241 13.9654C31.7886 13.8984 31.938 13.7993 32.0636 13.6737C32.1892 13.5482 32.2883 13.3987 32.3552 13.2342C32.4222 13.0697 32.4555 12.8935 32.4532 12.7159V9.93701Z" fill="white"/>
<path d="M39.6951 6.31595C39.6951 5.95861 39.5532 5.6159 39.3005 5.36322C39.0478 5.11054 38.7051 4.96859 38.3478 4.96859C37.9904 4.96859 37.6477 5.11054 37.395 5.36322C37.1423 5.6159 37.0004 5.95861 37.0004 6.31595V12.7159C37.0004 13.0733 37.1423 13.416 37.395 13.6687C37.6477 13.9213 37.9904 14.0633 38.3478 14.0633C38.7051 14.0633 39.0478 13.9213 39.3005 13.6687C39.5532 13.416 39.6951 13.0733 39.6951 12.7159V6.31595ZM46.9372 1.34755C46.9372 0.990204 46.7953 0.647497 46.5426 0.394817C46.2899 0.142137 45.9472 0.000183105 45.5898 0.000183105C45.2325 0.000183105 44.8898 0.142137 44.6371 0.394817C44.3844 0.647497 44.2425 0.990204 44.2425 1.34755V15.3264C44.2425 15.6838 44.3844 16.0265 44.6371 16.2792C44.8898 16.5319 45.2325 16.6738 45.5898 16.6738C45.9472 16.6738 46.2899 16.5319 46.5426 16.2792C46.7953 16.0265 46.9372 15.6838 46.9372 15.3264V1.34755ZM54.1793 6.31595C54.1793 6.13901 54.1444 5.96381 54.0767 5.80034C54.009 5.63687 53.9098 5.48834 53.7847 5.36322C53.6595 5.23811 53.511 5.13886 53.3475 5.07115C53.1841 5.00344 53.0089 4.96859 52.8319 4.96859C52.655 4.96859 52.4798 5.00344 52.3163 5.07115C52.1528 5.13886 52.0043 5.23811 51.8792 5.36322C51.7541 5.48834 51.6548 5.63687 51.5871 5.80034C51.5194 5.96381 51.4846 6.13901 51.4846 6.31595V12.7159C51.4846 12.8929 51.5194 13.0681 51.5871 13.2315C51.6548 13.395 51.7541 13.5435 51.8792 13.6687C52.0043 13.7938 52.1528 13.893 52.3163 13.9607C52.4798 14.0284 52.655 14.0633 52.8319 14.0633C53.0089 14.0633 53.1841 14.0284 53.3475 13.9607C53.511 13.893 53.6595 13.7938 53.7847 13.6687C53.9098 13.5435 54.009 13.395 54.0767 13.2315C54.1444 13.0681 54.1793 12.8929 54.1793 12.7159V6.31595ZM61.4214 9.93699C61.4214 9.57965 61.2794 9.23694 61.0267 8.98426C60.7741 8.73158 60.4313 8.58963 60.074 8.58963C59.7167 8.58963 59.374 8.73158 59.1213 8.98426C58.8686 9.23694 58.7266 9.57965 58.7266 9.93699V12.7159C58.7266 13.0733 58.8686 13.416 59.1213 13.6687C59.374 13.9213 59.7167 14.0633 60.074 14.0633C60.4313 14.0633 60.7741 13.9213 61.0267 13.6687C61.2794 13.416 61.4214 13.0733 61.4214 12.7159V9.93699Z" fill="white"/>
</svg>
