<svg width="164" height="47" viewBox="0 0 164 47" fill="none" xmlns="http://www.w3.org/2000/svg">
<g clip-path="url(#clip0_57073_87071)">
<path d="M23.8005 22.5572C22.2151 23.9824 20.122 24.7723 17.8249 24.7723C12.7612 24.7723 9.04263 21.0537 9.04263 15.9482C9.04263 10.8427 12.6429 7.28061 17.8249 7.28061C20.0819 7.28061 22.2152 8.03233 23.8406 9.45751L24.9454 10.4076L29.8544 5.50049L28.6258 4.39202C25.7372 1.78373 21.9021 0.320312 17.8231 0.320312C8.72229 0.320312 2.11328 6.88745 2.11328 15.91C2.11328 24.8943 8.88064 31.6962 17.8231 31.6962C21.9785 31.6962 25.8537 30.2328 28.7058 27.5827L29.8926 26.4742L24.9072 21.5707L23.8005 22.5572Z" fill="white"/>
<path d="M17.5842 10.7642C18.9802 10.7642 20.3191 11.3188 21.3063 12.306C22.2935 13.2931 22.8481 14.632 22.8481 16.0281C22.8481 17.4242 22.2935 18.7631 21.3063 19.7502C20.3191 20.7374 18.9802 21.292 17.5842 21.292C16.1881 21.292 14.8492 20.7374 13.862 19.7502C12.8748 18.7631 12.3203 17.4242 12.3203 16.0281C12.3203 14.632 12.8748 13.2931 13.862 12.306C14.8492 11.3188 16.1881 10.7642 17.5842 10.7642Z" fill="#FF3D2E"/>
</g>
<path d="M58 0L60.2451 6.90983H67.5106L61.6327 11.1803L63.8779 18.0902L58 13.8197L52.1221 18.0902L54.3673 11.1803L48.4894 6.90983H55.7549L58 0Z" fill="#FFE608"/>
<path d="M82 0L84.2451 6.90983H91.5106L85.6327 11.1803L87.8779 18.0902L82 13.8197L76.1221 18.0902L78.3673 11.1803L72.4894 6.90983H79.7549L82 0Z" fill="#FFE608"/>
<path d="M106 0L108.245 6.90983H115.511L109.633 11.1803L111.878 18.0902L106 13.8197L100.122 18.0902L102.367 11.1803L96.4894 6.90983H103.755L106 0Z" fill="#FFE608"/>
<path d="M130 0L132.245 6.90983H139.511L133.633 11.1803L135.878 18.0902L130 13.8197L124.122 18.0902L126.367 11.1803L120.489 6.90983H127.755L130 0Z" fill="#FFE608"/>
<path d="M154 0L156.245 6.90983H163.511L157.633 11.1803L159.878 18.0902L154 13.8197L148.122 18.0902L150.367 11.1803L144.489 6.90983H151.755L154 0Z" fill="#FFE608"/>
<path d="M49.233 42V31.8182H52.6733C53.4688 31.8182 54.1217 31.9541 54.6321 32.2259C55.1425 32.4943 55.5204 32.8639 55.7656 33.3345C56.0109 33.8052 56.1335 34.3404 56.1335 34.9403C56.1335 35.5402 56.0109 36.0722 55.7656 36.5362C55.5204 37.0002 55.1442 37.3648 54.6371 37.63C54.13 37.8918 53.482 38.0227 52.6932 38.0227H49.9091V36.9091H52.6534C53.197 36.9091 53.6345 36.8295 53.9659 36.6705C54.3007 36.5114 54.5426 36.286 54.6918 35.9943C54.8442 35.6993 54.9205 35.348 54.9205 34.9403C54.9205 34.5327 54.8442 34.1764 54.6918 33.8714C54.5393 33.5665 54.2957 33.3312 53.9609 33.1655C53.6262 32.9964 53.1837 32.9119 52.6335 32.9119H50.4659V42H49.233ZM54.0256 37.4261L56.5312 42H55.0994L52.6335 37.4261H54.0256ZM60.2761 42.179C59.7922 42.179 59.353 42.0878 58.9586 41.9055C58.5642 41.7199 58.251 41.4531 58.019 41.1051C57.787 40.7538 57.671 40.3295 57.671 39.8324C57.671 39.3949 57.7572 39.0402 57.9295 38.7685C58.1019 38.4934 58.3322 38.2779 58.6206 38.1222C58.9089 37.9664 59.2271 37.8504 59.5751 37.7741C59.9264 37.6946 60.2794 37.6316 60.6341 37.5852C61.0981 37.5256 61.4743 37.4808 61.7626 37.451C62.0543 37.4179 62.2664 37.3632 62.399 37.2869C62.5349 37.2107 62.6028 37.0781 62.6028 36.8892V36.8494C62.6028 36.3589 62.4686 35.9777 62.2001 35.706C61.935 35.4342 61.5323 35.2983 60.992 35.2983C60.4319 35.2983 59.9927 35.4209 59.6745 35.6662C59.3564 35.9115 59.1326 36.1733 59.0034 36.4517L57.8897 36.054C58.0886 35.59 58.3538 35.2287 58.6852 34.9702C59.0199 34.7083 59.3845 34.526 59.7789 34.4233C60.1767 34.3172 60.5678 34.2642 60.9522 34.2642C61.1975 34.2642 61.4792 34.294 61.7974 34.3537C62.1189 34.41 62.4288 34.5277 62.7271 34.7067C63.0287 34.8857 63.2789 35.1558 63.4778 35.517C63.6767 35.8783 63.7761 36.3622 63.7761 36.9688V42H62.6028V40.9659H62.5431C62.4636 41.1316 62.331 41.3089 62.1454 41.4979C61.9598 41.6868 61.7129 41.8475 61.4047 41.9801C61.0964 42.1127 60.7202 42.179 60.2761 42.179ZM60.4551 41.125C60.9191 41.125 61.3102 41.0339 61.6284 40.8516C61.9499 40.6693 62.1918 40.4339 62.3542 40.1456C62.5199 39.8572 62.6028 39.554 62.6028 39.2358V38.1619C62.5531 38.2216 62.4437 38.2763 62.2747 38.326C62.109 38.3724 61.9167 38.4138 61.698 38.4503C61.4825 38.4834 61.2721 38.5133 61.0666 38.5398C60.8644 38.563 60.7003 38.5829 60.5744 38.5994C60.2695 38.6392 59.9844 38.7038 59.7193 38.7933C59.4574 38.8795 59.2453 39.0104 59.0829 39.1861C58.9238 39.3584 58.8443 39.5937 58.8443 39.892C58.8443 40.2997 58.9951 40.608 59.2967 40.8168C59.6016 41.0223 59.9877 41.125 60.4551 41.125ZM69.2386 34.3636V35.358H65.2812V34.3636H69.2386ZM66.4347 32.5341H67.608V39.8125C67.608 40.1439 67.656 40.3925 67.7521 40.5582C67.8516 40.7206 67.9775 40.83 68.13 40.8864C68.2857 40.9394 68.4498 40.9659 68.6222 40.9659C68.7514 40.9659 68.8575 40.9593 68.9403 40.946C69.0232 40.9295 69.0895 40.9162 69.1392 40.9062L69.3778 41.9602C69.2983 41.9901 69.1873 42.0199 69.0447 42.0497C68.9022 42.0829 68.7216 42.0994 68.5028 42.0994C68.1714 42.0994 67.8466 42.0282 67.5284 41.8857C67.2135 41.7431 66.9517 41.526 66.7429 41.2344C66.5374 40.9427 66.4347 40.5748 66.4347 40.1307V32.5341ZM71.0036 42V34.3636H72.1768V42H71.0036ZM71.6001 33.0909C71.3714 33.0909 71.1742 33.013 71.0085 32.8572C70.8461 32.7015 70.7649 32.5142 70.7649 32.2955C70.7649 32.0767 70.8461 31.8894 71.0085 31.7337C71.1742 31.5779 71.3714 31.5 71.6001 31.5C71.8288 31.5 72.0244 31.5779 72.1868 31.7337C72.3525 31.8894 72.4354 32.0767 72.4354 32.2955C72.4354 32.5142 72.3525 32.7015 72.1868 32.8572C72.0244 33.013 71.8288 33.0909 71.6001 33.0909ZM75.4991 37.4062V42H74.3258V34.3636H75.4593V35.5568H75.5588C75.7377 35.169 76.0095 34.8575 76.3741 34.6222C76.7387 34.3835 77.2093 34.2642 77.786 34.2642C78.3031 34.2642 78.7555 34.3703 79.1433 34.5824C79.5311 34.7912 79.8327 35.1094 80.0481 35.5369C80.2636 35.9612 80.3713 36.4981 80.3713 37.1477V42H79.198V37.2273C79.198 36.6274 79.0422 36.16 78.7306 35.8253C78.4191 35.4872 77.9915 35.3182 77.448 35.3182C77.0734 35.3182 76.7387 35.3994 76.4437 35.5618C76.152 35.7242 75.9217 35.9612 75.7527 36.2727C75.5836 36.5843 75.4991 36.9621 75.4991 37.4062ZM85.5977 45.0227C85.0309 45.0227 84.5437 44.9498 84.136 44.804C83.7283 44.6615 83.3886 44.4725 83.1168 44.2372C82.8484 44.0052 82.6346 43.7566 82.4755 43.4915L83.4102 42.8352C83.5162 42.9744 83.6504 43.1335 83.8129 43.3125C83.9753 43.4948 84.1973 43.6522 84.479 43.7848C84.7641 43.9207 85.137 43.9886 85.5977 43.9886C86.2141 43.9886 86.7229 43.8395 87.1239 43.5412C87.525 43.2429 87.7255 42.7756 87.7255 42.1392V40.5881H87.6261C87.5399 40.7273 87.4173 40.8996 87.2582 41.1051C87.1024 41.3073 86.877 41.4879 86.582 41.647C86.2904 41.8028 85.896 41.8807 85.3988 41.8807C84.7823 41.8807 84.2288 41.7348 83.7383 41.4432C83.2511 41.1515 82.8649 40.7273 82.5799 40.1705C82.2982 39.6136 82.1573 38.9375 82.1573 38.142C82.1573 37.3598 82.2949 36.6787 82.57 36.0987C82.8451 35.5154 83.2279 35.0646 83.7184 34.7464C84.2089 34.425 84.7757 34.2642 85.4187 34.2642C85.9158 34.2642 86.3103 34.3471 86.6019 34.5128C86.8969 34.6752 87.1223 34.8608 87.2781 35.0696C87.4371 35.2751 87.5598 35.4441 87.646 35.5767H87.7653V34.3636H88.8988V42.2188C88.8988 42.875 88.7496 43.4086 88.4513 43.8196C88.1564 44.2339 87.7586 44.5372 87.2582 44.7294C86.761 44.925 86.2075 45.0227 85.5977 45.0227ZM85.5579 40.8267C86.0285 40.8267 86.4263 40.719 86.7511 40.5036C87.0759 40.2881 87.3228 39.9782 87.4918 39.5739C87.6609 39.1695 87.7454 38.6856 87.7454 38.1222C87.7454 37.572 87.6625 37.0864 87.4968 36.6655C87.3311 36.2446 87.0858 35.9148 86.761 35.6761C86.4362 35.4375 86.0352 35.3182 85.5579 35.3182C85.0607 35.3182 84.6464 35.4441 84.315 35.696C83.9869 35.9479 83.7399 36.286 83.5742 36.7102C83.4118 37.1345 83.3306 37.6051 83.3306 38.1222C83.3306 38.6525 83.4135 39.1214 83.5792 39.5291C83.7482 39.9335 83.9968 40.2517 84.3249 40.4837C84.6564 40.7124 85.0674 40.8267 85.5579 40.8267ZM98.2255 42.1392C97.5427 42.1392 96.9395 42.0182 96.4158 41.7763C95.8955 41.531 95.4895 41.1946 95.1978 40.767C94.9061 40.3362 94.762 39.8456 94.7653 39.2955C94.762 38.8646 94.8465 38.4669 95.0188 38.1023C95.1912 37.7344 95.4265 37.4278 95.7248 37.1825C96.0264 36.9339 96.3628 36.7765 96.734 36.7102V36.6506C96.2468 36.5246 95.859 36.2512 95.5707 35.8303C95.2823 35.406 95.1398 34.9238 95.1431 34.3835C95.1398 33.8665 95.2707 33.4041 95.5359 32.9964C95.801 32.5888 96.1656 32.2673 96.6296 32.032C97.0969 31.7966 97.6289 31.679 98.2255 31.679C98.8155 31.679 99.3424 31.7966 99.8065 32.032C100.27 32.2673 100.635 32.5888 100.9 32.9964C101.169 33.4041 101.305 33.8665 101.308 34.3835C101.305 34.9238 101.157 35.406 100.865 35.8303C100.577 36.2512 100.194 36.5246 99.717 36.6506V36.7102C100.085 36.7765 100.416 36.9339 100.711 37.1825C101.006 37.4278 101.242 37.7344 101.417 38.1023C101.593 38.4669 101.682 38.8646 101.686 39.2955C101.682 39.8456 101.533 40.3362 101.238 40.767C100.947 41.1946 100.541 41.531 100.02 41.7763C99.5032 42.0182 98.9049 42.1392 98.2255 42.1392ZM98.2255 41.0455C98.6862 41.0455 99.0839 40.9709 99.4187 40.8217C99.7534 40.6726 100.012 40.4621 100.194 40.1903C100.377 39.9186 100.469 39.6004 100.473 39.2358C100.469 38.8513 100.37 38.5116 100.174 38.2166C99.9788 37.9216 99.712 37.6896 99.3739 37.5206C99.0392 37.3516 98.6564 37.267 98.2255 37.267C97.7913 37.267 97.4035 37.3516 97.0621 37.5206C96.7241 37.6896 96.4573 37.9216 96.2617 38.2166C96.0695 38.5116 95.975 38.8513 95.9783 39.2358C95.975 39.6004 96.0629 39.9186 96.2418 40.1903C96.4241 40.4621 96.6843 40.6726 97.0224 40.8217C97.3604 40.9709 97.7615 41.0455 98.2255 41.0455ZM98.2255 36.2131C98.5901 36.2131 98.9132 36.1402 99.195 35.9943C99.48 35.8485 99.7037 35.6446 99.8661 35.3828C100.029 35.121 100.111 34.8144 100.115 34.4631C100.111 34.1184 100.03 33.8184 99.8711 33.5632C99.712 33.3047 99.4916 33.1058 99.2099 32.9666C98.9281 32.8241 98.6 32.7528 98.2255 32.7528C97.8443 32.7528 97.5112 32.8241 97.2262 32.9666C96.9412 33.1058 96.7208 33.3047 96.565 33.5632C96.4092 33.8184 96.333 34.1184 96.3363 34.4631C96.333 34.8144 96.4109 35.121 96.57 35.3828C96.7324 35.6446 96.9561 35.8485 97.2411 35.9943C97.5262 36.1402 97.8543 36.2131 98.2255 36.2131ZM107.548 42V34.3636H108.682V35.517H108.762C108.901 35.1392 109.153 34.8326 109.517 34.5973C109.882 34.362 110.293 34.2443 110.75 34.2443C110.836 34.2443 110.944 34.246 111.073 34.2493C111.203 34.2526 111.3 34.2576 111.367 34.2642V35.4574C111.327 35.4474 111.236 35.4325 111.093 35.4126C110.954 35.3894 110.807 35.3778 110.651 35.3778C110.28 35.3778 109.948 35.4557 109.656 35.6115C109.368 35.764 109.139 35.9761 108.97 36.2479C108.805 36.5163 108.722 36.8229 108.722 37.1676V42H107.548ZM115.727 42.1591C114.991 42.1591 114.356 41.9967 113.823 41.6719C113.292 41.3438 112.883 40.8864 112.595 40.2997C112.31 39.7098 112.167 39.0237 112.167 38.2415C112.167 37.4593 112.31 36.7699 112.595 36.1733C112.883 35.5734 113.284 35.1061 113.798 34.7713C114.315 34.4332 114.918 34.2642 115.607 34.2642C116.005 34.2642 116.398 34.3305 116.786 34.4631C117.173 34.5956 117.526 34.8111 117.845 35.1094C118.163 35.4044 118.416 35.7955 118.605 36.2827C118.794 36.7699 118.889 37.3698 118.889 38.0824V38.5795H113.002V37.5653H117.695C117.695 37.1345 117.609 36.75 117.437 36.4119C117.268 36.0739 117.026 35.8071 116.711 35.6115C116.4 35.416 116.032 35.3182 115.607 35.3182C115.14 35.3182 114.736 35.4342 114.394 35.6662C114.056 35.8949 113.796 36.1932 113.614 36.5611C113.432 36.929 113.34 37.3234 113.34 37.7443V38.4205C113.34 38.9972 113.44 39.486 113.639 39.8871C113.841 40.2848 114.121 40.5881 114.479 40.7969C114.837 41.0024 115.253 41.1051 115.727 41.1051C116.035 41.1051 116.313 41.062 116.562 40.9759C116.814 40.8864 117.031 40.7538 117.213 40.5781C117.396 40.3991 117.536 40.1771 117.636 39.9119L118.769 40.2301C118.65 40.6146 118.45 40.9527 118.168 41.2443C117.886 41.5327 117.538 41.758 117.124 41.9205C116.709 42.0795 116.244 42.1591 115.727 42.1591ZM126.685 34.3636L123.862 42H122.668L119.844 34.3636H121.117L123.225 40.4489H123.305L125.413 34.3636H126.685ZM128.234 42V34.3636H129.407V42H128.234ZM128.831 33.0909C128.602 33.0909 128.405 33.013 128.239 32.8572C128.077 32.7015 127.995 32.5142 127.995 32.2955C127.995 32.0767 128.077 31.8894 128.239 31.7337C128.405 31.5779 128.602 31.5 128.831 31.5C129.059 31.5 129.255 31.5779 129.417 31.7337C129.583 31.8894 129.666 32.0767 129.666 32.2955C129.666 32.5142 129.583 32.7015 129.417 32.8572C129.255 33.013 129.059 33.0909 128.831 33.0909ZM134.758 42.1591C134.022 42.1591 133.387 41.9967 132.854 41.6719C132.324 41.3438 131.914 40.8864 131.626 40.2997C131.341 39.7098 131.198 39.0237 131.198 38.2415C131.198 37.4593 131.341 36.7699 131.626 36.1733C131.914 35.5734 132.315 35.1061 132.829 34.7713C133.346 34.4332 133.949 34.2642 134.639 34.2642C135.036 34.2642 135.429 34.3305 135.817 34.4631C136.205 34.5956 136.558 34.8111 136.876 35.1094C137.194 35.4044 137.448 35.7955 137.637 36.2827C137.825 36.7699 137.92 37.3698 137.92 38.0824V38.5795H132.034V37.5653H136.727C136.727 37.1345 136.641 36.75 136.468 36.4119C136.299 36.0739 136.057 35.8071 135.742 35.6115C135.431 35.416 135.063 35.3182 134.639 35.3182C134.171 35.3182 133.767 35.4342 133.426 35.6662C133.088 35.8949 132.827 36.1932 132.645 36.5611C132.463 36.929 132.372 37.3234 132.372 37.7443V38.4205C132.372 38.9972 132.471 39.486 132.67 39.8871C132.872 40.2848 133.152 40.5881 133.51 40.7969C133.868 41.0024 134.284 41.1051 134.758 41.1051C135.066 41.1051 135.345 41.062 135.593 40.9759C135.845 40.8864 136.062 40.7538 136.244 40.5781C136.427 40.3991 136.568 40.1771 136.667 39.9119L137.801 40.2301C137.681 40.6146 137.481 40.9527 137.199 41.2443C136.917 41.5327 136.569 41.758 136.155 41.9205C135.741 42.0795 135.275 42.1591 134.758 42.1591ZM141.435 42L139.108 34.3636H140.341L141.992 40.2102H142.071L143.702 34.3636H144.955L146.566 40.1903H146.645L148.296 34.3636H149.529L147.202 42H146.048L144.378 36.1335H144.259L142.588 42H141.435ZM156.489 36.0739L155.435 36.3722C155.369 36.1965 155.271 36.0258 155.142 35.8601C155.016 35.6911 154.843 35.5518 154.624 35.4425C154.406 35.3331 154.126 35.2784 153.784 35.2784C153.317 35.2784 152.927 35.3861 152.616 35.6016C152.308 35.8137 152.154 36.0838 152.154 36.4119C152.154 36.7036 152.26 36.9339 152.472 37.103C152.684 37.272 153.015 37.4129 153.466 37.5256L154.6 37.804C155.282 37.9697 155.791 38.2232 156.126 38.5646C156.461 38.9027 156.628 39.3385 156.628 39.8722C156.628 40.3097 156.502 40.7008 156.25 41.0455C156.002 41.3902 155.654 41.6619 155.206 41.8608C154.759 42.0597 154.238 42.1591 153.645 42.1591C152.866 42.1591 152.222 41.9901 151.711 41.652C151.201 41.3139 150.878 40.8201 150.742 40.1705L151.855 39.892C151.961 40.303 152.162 40.6113 152.457 40.8168C152.755 41.0223 153.145 41.125 153.625 41.125C154.172 41.125 154.606 41.009 154.928 40.777C155.253 40.5417 155.415 40.2599 155.415 39.9318C155.415 39.6667 155.322 39.4446 155.137 39.2656C154.951 39.0833 154.666 38.9474 154.281 38.858L153.009 38.5597C152.309 38.3939 151.796 38.1371 151.468 37.7891C151.143 37.4377 150.98 36.9986 150.98 36.4716C150.98 36.0407 151.101 35.6596 151.343 35.3281C151.588 34.9967 151.922 34.7365 152.343 34.5476C152.767 34.3587 153.247 34.2642 153.784 34.2642C154.54 34.2642 155.133 34.4299 155.564 34.7614C155.998 35.0928 156.307 35.5303 156.489 36.0739Z" fill="#D5D5D5"/>
<defs>
<clipPath id="clip0_57073_87071">
<rect width="32" height="32" fill="white"/>
</clipPath>
</defs>
</svg>
