<svg width="12" height="16" viewBox="0 0 12 16" fill="none" xmlns="http://www.w3.org/2000/svg">
<g clip-path="url(#clip0_2120_3715)">
<path d="M5.99982 8.00025C5.99982 6.52752 7.19347 5.33359 8.66595 5.33359C10.1384 5.33359 11.3321 6.52752 11.3321 8.00025C11.3321 9.47303 10.1384 10.6669 8.66595 10.6669C7.19347 10.6669 5.99982 9.47303 5.99982 8.00025Z" fill="#1ABCFE"/>
<path d="M0.667786 13.3331C0.667786 11.8603 1.86144 10.6664 3.33392 10.6664H6.00005V13.3331C6.00005 14.8059 4.8064 15.9997 3.33392 15.9997C1.86144 15.9997 0.667786 14.8059 0.667786 13.3331Z" fill="#0ACF83"/>
<path d="M5.99982 0V5.3333H8.66595C10.1384 5.3333 11.3321 4.1394 11.3321 2.66663C11.3321 1.19386 10.1384 0 8.66595 0H5.99982Z" fill="#FF7262"/>
<path d="M0.667786 2.66667C0.667786 4.13944 1.86144 5.33333 3.33392 5.33333H6.00005V0H3.33392C1.86144 0 0.667786 1.19393 0.667786 2.66667Z" fill="#F24E1E"/>
<path d="M0.667786 8.00025C0.667786 9.47303 1.86144 10.6669 3.33392 10.6669H6.00005V5.33359H3.33392C1.86144 5.33359 0.667786 6.52752 0.667786 8.00025Z" fill="#A259FF"/>
</g>
<defs>
<clipPath id="clip0_2120_3715">
<rect width="10.6667" height="16" fill="white" transform="translate(0.666687)"/>
</clipPath>
</defs>
</svg>
