<svg width="20" height="19" viewBox="0 0 20 19" fill="none" xmlns="http://www.w3.org/2000/svg">
<path d="M14.782 0.290039H5.21794C2.57568 0.290039 0.426147 2.43958 0.426147 5.08183V13.8316C0.426147 16.4738 2.57568 18.6234 5.21794 18.6234H14.782C17.4243 18.6234 19.5738 16.4738 19.5738 13.8316V5.08183C19.5738 2.43958 17.4243 0.290039 14.782 0.290039ZM2.11654 5.08183C2.11654 3.37194 3.50805 1.98044 5.21794 1.98044H14.782C16.4919 1.98044 17.8834 3.37194 17.8834 5.08183V13.8316C17.8834 15.5415 16.4919 16.933 14.782 16.933H5.21794C3.50805 16.933 2.11654 15.5415 2.11654 13.8316V5.08183Z" fill="#DEDEDE"/>
<path d="M10.0005 13.9124C12.4576 13.9124 14.4577 11.9134 14.4577 9.45524C14.4577 6.99708 12.4587 4.99805 10.0005 4.99805C7.54235 4.99805 5.54333 6.99708 5.54333 9.45524C5.54333 11.9134 7.54235 13.9124 10.0005 13.9124ZM10.0005 6.68953C11.5263 6.68953 12.7673 7.93053 12.7673 9.45632C12.7673 10.9821 11.5263 12.2231 10.0005 12.2231C8.47472 12.2231 7.23373 10.9821 7.23373 9.45632C7.23373 7.93053 8.47472 6.68953 10.0005 6.68953Z" fill="#DEDEDE"/>
<path d="M14.8693 5.71828C15.5309 5.71828 16.0702 5.18007 16.0702 4.51734C16.0702 3.85461 15.532 3.31641 14.8693 3.31641C14.2065 3.31641 13.6683 3.85461 13.6683 4.51734C13.6683 5.18007 14.2065 5.71828 14.8693 5.71828Z" fill="#DEDEDE"/>
</svg>
