<svg width="20" height="19" viewBox="0 0 20 19" fill="none" xmlns="http://www.w3.org/2000/svg">
<path d="M1.3577 3.91826C0.922409 3.51422 0.705933 3.0141 0.705933 2.41904C0.705933 1.82398 0.923567 1.30187 1.3577 0.896673C1.793 0.492636 2.35333 0.290039 3.03985 0.290039C3.72636 0.290039 4.2647 0.492636 4.69884 0.896673C5.13414 1.30071 5.35061 1.80893 5.35061 2.41904C5.35061 3.02915 5.13298 3.51422 4.69884 3.91826C4.26355 4.32229 3.71131 4.52489 3.03985 4.52489C2.36838 4.52489 1.793 4.32229 1.3577 3.91826ZM4.98479 6.23597V18.6234H1.0706V6.23597H4.98479Z" fill="#DEDEDE"/>
<path d="M18.0147 7.45955C18.868 8.38571 19.294 9.65687 19.294 11.2753V18.4045H15.5766V11.7778C15.5766 10.9616 15.3648 10.3272 14.9422 9.87566C14.5197 9.42416 13.9501 9.19726 13.2369 9.19726C12.5238 9.19726 11.9542 9.423 11.5316 9.87566C11.109 10.3272 10.8972 10.9616 10.8972 11.7778V18.4045H7.15784V6.20112H10.8972V7.81961C11.2758 7.28012 11.7863 6.85408 12.4277 6.54035C13.0691 6.22661 13.7903 6.07031 14.5926 6.07031C16.0212 6.07031 17.1627 6.53339 18.0147 7.45955Z" fill="#DEDEDE"/>
</svg>
