<svg width="180" height="36" viewBox="0 0 180 36" fill="none" xmlns="http://www.w3.org/2000/svg">
<path d="M20.6875 7.60135C20.6732 7.62103 20.666 7.64428 20.666 7.66754C20.666 7.69259 20.6732 7.71585 20.6875 7.73552C20.7036 7.75342 20.7233 7.76773 20.7465 7.77846L21.9434 8.20782C22.5982 8.44576 23.1903 8.82503 23.6841 9.31701C24.1779 9.8072 24.5571 10.4029 24.7915 11.0595L25.2226 12.251C25.2298 12.2743 25.2441 12.2957 25.2638 12.31C25.2853 12.3244 25.3085 12.3315 25.3336 12.3315C25.3586 12.3315 25.3837 12.3244 25.4033 12.31C25.4212 12.2921 25.4337 12.2725 25.4445 12.251L25.8756 11.0595C26.1118 10.4047 26.4893 9.80899 26.983 9.31701C27.4732 8.82146 28.0672 8.44218 28.7237 8.20782L29.9206 7.77846C29.9439 7.7713 29.9653 7.7552 29.9796 7.73552C29.9957 7.71585 30.0029 7.69259 30.0011 7.66754C30.0011 7.6425 29.9939 7.61745 29.9796 7.59777C29.9635 7.57988 29.9439 7.56557 29.9206 7.55662L28.7237 7.12547C28.0708 6.88574 27.4768 6.50647 26.983 6.01628C26.4893 5.52609 26.11 4.93214 25.8756 4.27557L25.4445 3.0805C25.4373 3.05725 25.423 3.03578 25.4033 3.02147C25.3837 3.00716 25.3586 3 25.3336 3C25.3085 3 25.2835 3.00716 25.2638 3.02147C25.2459 3.03757 25.2316 3.05725 25.2226 3.0805L24.7915 4.27915C24.5553 4.93392 24.1761 5.52788 23.6841 6.01986C23.1939 6.51542 22.5999 6.89468 21.9434 7.12905L20.7465 7.5602C20.7233 7.56736 20.7018 7.58167 20.6875 7.60135Z" fill="#F3FE00"/>
<path d="M20.0026 13.0024H10.002V23.003H20.0026V13.0024Z" fill="#F3FE00"/>
<path d="M24.9997 27.9997H5.0003V8.0003H18.3338L21.6346 3H0V33H30V11.3601C30 11.3601 24.9997 14.693 24.9997 14.6715V27.9997Z" fill="#F3FE00"/>
<path d="M172.901 17.1707L169.266 17.3997C169.196 17.0813 169.071 16.8004 168.86 16.5535C168.648 16.3066 168.384 16.0955 168.047 15.9542C167.713 15.795 167.325 15.7252 166.865 15.7252C166.248 15.7252 165.736 15.8486 165.312 16.1134C164.888 16.3603 164.677 16.7127 164.677 17.1367C164.677 17.4713 164.818 17.7718 165.083 18.0008C165.366 18.2298 165.824 18.4248 166.494 18.5662L169.089 19.0957C170.482 19.3784 171.523 19.8364 172.212 20.4715C172.901 21.1066 173.236 21.9367 173.236 22.9779C173.236 23.9135 172.953 24.7418 172.405 25.4485C171.858 26.1552 171.099 26.7187 170.146 27.1069C169.192 27.4951 168.099 27.6901 166.845 27.6901C164.94 27.6901 163.439 27.3019 162.31 26.5076C161.199 25.7133 160.528 24.6202 160.333 23.2605L164.251 23.0494C164.375 23.6327 164.657 24.0728 165.115 24.3733C165.573 24.6739 166.156 24.8152 166.863 24.8152C167.57 24.8152 168.115 24.6739 168.539 24.4091C168.963 24.1264 169.192 23.7919 169.192 23.35C169.192 22.9976 169.033 22.697 168.734 22.468C168.434 22.239 167.976 22.044 167.359 21.9206L164.87 21.4268C163.476 21.1441 162.435 20.6683 161.746 19.9616C161.076 19.2728 160.723 18.3908 160.723 17.3138C160.723 16.3961 160.97 15.6018 161.464 14.9309C161.975 14.26 162.682 13.7483 163.582 13.3959C164.5 13.0435 165.559 12.8485 166.793 12.8485C168.611 12.8485 170.022 13.2367 171.064 13.9952C172.105 14.8074 172.722 15.8486 172.899 17.1725L172.901 17.1707Z" fill="#F3FE00"/>
<path d="M152.831 27.7063C151.348 27.7063 150.078 27.4058 149.019 26.8064C147.96 26.2071 147.148 25.3412 146.566 24.2481C146.001 23.1372 145.702 21.8312 145.702 20.3123C145.702 18.7934 145.985 17.5411 146.566 16.4301C147.132 15.3192 147.942 14.4533 148.983 13.8182C150.025 13.201 151.259 12.8825 152.654 12.8825C153.608 12.8825 154.49 13.0417 155.302 13.3405C156.132 13.6411 156.837 14.0812 157.454 14.7002C158.072 15.2995 158.549 16.0598 158.884 16.9758C159.218 17.8757 159.395 18.9527 159.395 20.1692V21.2641H147.289V18.7934H155.655C155.655 18.2281 155.531 17.7164 155.284 17.2763C155.037 16.8345 154.685 16.482 154.243 16.2351C153.801 15.9883 153.307 15.8469 152.726 15.8469C152.145 15.8469 151.579 15.9883 151.119 16.2709C150.661 16.5536 150.289 16.9239 150.042 17.3819C149.778 17.8399 149.654 18.3533 149.636 18.9169V21.2641C149.636 21.9707 149.76 22.5879 150.025 23.0996C150.289 23.6113 150.66 24.0174 151.153 24.3C151.647 24.5827 152.213 24.724 152.883 24.724C153.325 24.724 153.73 24.6542 154.102 24.529C154.472 24.4056 154.79 24.2106 155.037 23.9637C155.302 23.7168 155.495 23.4162 155.637 23.0459L159.308 23.2928C159.113 24.1748 158.742 24.9512 158.161 25.6042C157.596 26.2572 156.855 26.7689 155.937 27.1392C155.055 27.5095 154.014 27.7045 152.831 27.7045V27.7063Z" fill="#F3FE00"/>
<path d="M123.381 27.4236V13.0775H127.175V15.6018H127.353C127.653 14.7556 128.147 14.1026 128.852 13.6071C129.541 13.1133 130.387 12.8843 131.358 12.8843C132.33 12.8843 133.176 13.1312 133.865 13.625C134.553 14.1187 135.011 14.7717 135.24 15.6018H135.382C135.682 14.7717 136.212 14.1187 136.97 13.625C137.747 13.1312 138.647 12.8843 139.706 12.8843C141.048 12.8843 142.123 13.3083 142.971 14.1545C143.817 15.0007 144.223 16.2011 144.223 17.754V27.3896H140.253V18.5304C140.253 17.7361 140.042 17.1368 139.618 16.7307C139.194 16.3246 138.665 16.1314 138.029 16.1314C137.307 16.1314 136.741 16.3604 136.335 16.8201C135.929 17.2781 135.736 17.8792 135.736 18.6199V27.3735H131.89V18.4267C131.89 17.72 131.695 17.1565 131.29 16.7504C130.884 16.3264 130.372 16.1332 129.719 16.1332C129.278 16.1332 128.873 16.2387 128.519 16.4677C128.167 16.6788 127.902 16.9973 127.689 17.3855C127.478 17.7737 127.388 18.2317 127.388 18.7612V27.3735H123.383V27.4272L123.381 27.4236Z" fill="#F3FE00"/>
<path d="M120.841 15.5481C120.507 14.9309 120.047 14.4193 119.481 14.0311C118.898 13.6429 118.263 13.3602 117.522 13.167C116.782 12.972 116.023 12.8843 115.229 12.8843C114.1 12.8843 113.077 13.0614 112.211 13.4139C111.347 13.7663 110.64 14.2601 110.093 14.897C109.545 15.5321 109.193 16.2906 108.998 17.1565L112.669 17.457C112.81 16.9812 113.093 16.5929 113.515 16.2745C113.937 15.956 114.503 15.7986 115.227 15.7986C115.952 15.7986 116.428 15.9757 116.798 16.2924C117.168 16.6269 117.363 17.0688 117.363 17.6681V17.7218C117.363 18.0224 117.24 18.2514 117.011 18.4106C116.782 18.5698 116.411 18.6753 115.9 18.763C115.388 18.8328 114.717 18.9222 113.887 19.0099C113.181 19.0797 112.511 19.187 111.858 19.3623C111.223 19.5216 110.658 19.7684 110.146 20.103C109.635 20.4375 109.246 20.8615 108.946 21.409C108.645 21.9564 108.504 22.6273 108.504 23.4198C108.504 24.3555 108.715 25.1498 109.121 25.7849C109.527 26.42 110.093 26.8959 110.815 27.2143C111.538 27.5328 112.35 27.6902 113.268 27.6902C113.975 27.6902 114.61 27.6025 115.139 27.3896C115.687 27.1946 116.145 26.9317 116.533 26.5953C116.903 26.2608 117.222 25.8547 117.451 25.4128H117.556V27.4075H121.333V17.7379C121.333 16.8917 121.174 16.1672 120.839 15.5499L120.841 15.5481ZM117.401 22.2892C117.401 22.8008 117.259 23.2427 117.013 23.6488C116.748 24.0549 116.395 24.3716 115.953 24.6024C115.496 24.8314 114.982 24.9548 114.401 24.9548C113.819 24.9548 113.29 24.8135 112.918 24.5308C112.529 24.2481 112.334 23.842 112.334 23.2964C112.334 22.9261 112.422 22.6076 112.617 22.3607C112.812 22.1138 113.075 21.9027 113.429 21.7614C113.764 21.6022 114.188 21.4966 114.648 21.4269C114.859 21.3911 115.105 21.3571 115.37 21.3213C115.635 21.2676 115.9 21.2336 116.165 21.18C116.429 21.1263 116.676 21.0744 116.887 21.0029C117.098 20.9331 117.276 20.8615 117.399 20.7739V22.291L117.401 22.2892Z" fill="#F3FE00"/>
<path d="M99.8937 13.0775H103.74V15.5839H103.881C104.146 14.7019 104.588 14.0132 105.205 13.5731C105.822 13.1151 106.529 12.8843 107.341 12.8843C107.536 12.8843 107.747 12.9022 107.994 12.9201C108.241 12.938 108.436 12.9738 108.594 13.0256V16.5554C108.399 16.5017 108.152 16.4498 107.817 16.414C107.483 16.3783 107.182 16.3443 106.917 16.3443C106.334 16.3443 105.806 16.4677 105.347 16.7325C104.889 16.9794 104.534 17.3318 104.27 17.7737C104.005 18.2156 103.881 18.7451 103.881 19.3266V27.4433H99.8937V13.0793V13.0775Z" fill="#F3FE00"/>
<path d="M96.1527 11.632L98.5196 8.30081H85.8605V27.42H89.9037V19.5215H95.3136L97.6805 16.1904H89.9037V11.6337H96.1545L96.1527 11.632Z" fill="#F3FE00"/>
<path d="M77.6587 27.7063C76.1756 27.7063 74.9054 27.4058 73.8463 26.8064C72.7872 26.2071 71.9749 25.3412 71.3935 24.2481C70.8282 23.1372 70.5294 21.8312 70.5294 20.3123C70.5294 18.7934 70.8121 17.5411 71.3935 16.4301C71.9588 15.3192 72.7693 14.4533 73.8105 13.8182C74.8517 13.201 76.0861 12.8825 77.4815 12.8825C78.4351 12.8825 79.3171 13.0417 80.1293 13.3405C80.9594 13.6411 81.6643 14.0812 82.2815 14.7002C82.8987 15.2995 83.3763 16.0598 83.7109 16.9758C84.0454 17.8757 84.2226 18.9527 84.2226 20.1692V21.2641H72.1163V18.7934H80.4817C80.4817 18.2281 80.3583 17.7164 80.1114 17.2763C79.8645 16.8362 79.5121 16.482 79.0702 16.2351C78.6283 15.9883 78.1345 15.8469 77.5531 15.8469C76.9717 15.8469 76.4063 15.9883 75.9466 16.2709C75.4886 16.5536 75.1165 16.9239 74.8696 17.3819C74.6048 17.8399 74.4814 18.3533 74.4635 18.9169V21.2641C74.4635 21.9707 74.5869 22.5879 74.8517 23.0996C75.1165 23.6113 75.5047 24.0174 75.9806 24.3C76.4743 24.5827 77.0396 24.724 77.7105 24.724C78.1524 24.724 78.5567 24.6542 78.9289 24.529C79.2992 24.4056 79.6176 24.2106 79.8645 23.9637C80.1293 23.7168 80.3225 23.4162 80.4638 23.0459L84.1349 23.2928C83.9399 24.1748 83.5696 24.9512 82.9881 25.6042C82.4228 26.2572 81.6821 26.7689 80.7644 27.1392C79.9003 27.5095 78.8412 27.7045 77.6587 27.7045V27.7063Z" fill="#F3FE00"/>
<path d="M63.0131 27.7063C61.5301 27.7063 60.2599 27.4058 59.2008 26.8064C58.1417 26.2071 57.3294 25.3412 56.748 24.2481C56.1827 23.1372 55.8839 21.8312 55.8839 20.3123C55.8839 18.7934 56.1666 17.5411 56.748 16.4301C57.3312 15.3192 58.1238 14.4533 59.165 13.8182C60.2062 13.201 61.4406 12.8825 62.836 12.8825C63.7896 12.8825 64.6716 13.0417 65.4838 13.3405C66.3139 13.6411 67.0187 14.0812 67.636 14.7002C68.2532 15.2995 68.7308 16.0598 69.0654 16.9758C69.3999 17.8757 69.577 18.9527 69.577 20.1692V21.2641H57.4708V18.7934H65.8362C65.8362 18.2281 65.7128 17.7164 65.4659 17.2763C65.219 16.8362 64.8666 16.482 64.4247 16.2351C63.9828 15.9883 63.489 15.8469 62.9076 15.8469C62.3262 15.8469 61.7608 15.9883 61.3011 16.2709C60.8431 16.5536 60.4709 16.9239 60.2241 17.3819C59.9593 17.8399 59.8358 18.3533 59.818 18.9169V21.2641C59.818 21.9707 59.9414 22.5879 60.2062 23.0996C60.471 23.6113 60.8592 24.0174 61.335 24.3C61.8288 24.5827 62.3941 24.724 63.065 24.724C63.5069 24.724 63.9112 24.6542 64.2833 24.529C64.6537 24.4056 64.9721 24.2106 65.219 23.9637C65.4838 23.7168 65.677 23.4162 65.8183 23.0459L69.4894 23.2928C69.2944 24.1748 68.924 24.9512 68.3426 25.6042C67.7773 26.2572 67.0366 26.7689 66.1189 27.1392C65.2369 27.5095 64.1957 27.7045 63.0131 27.7045V27.7063Z" fill="#F3FE00"/>
<path d="M39.8589 27.4236V25.0227L49.4051 11.6284H39.841V8.29365H54.4698V10.6945L44.9236 24.0889H54.4877V27.4236H39.8589Z" fill="#F3FE00"/>
</svg>
