<svg width="143" height="32" viewBox="0 0 143 32" fill="none" xmlns="http://www.w3.org/2000/svg">
<g clip-path="url(#clip0_2120_4428)">
<path d="M83.054 6.41536H73.3943C73.0073 6.42456 72.6204 6.39237 72.2403 6.31936C71.865 6.21641 71.5358 5.98961 71.3068 5.6761C71.0777 5.36258 70.9623 4.98092 70.9795 4.5936C70.9745 4.20644 71.0973 3.82836 71.329 3.51741C71.5607 3.20645 71.8885 2.97981 72.262 2.87229C72.6221 2.79077 72.9921 2.76144 73.3606 2.78522H87.0629V0.00271314H73.132C72.6709 -0.00460517 72.2099 0.020262 71.7523 0.0771317C70.6591 0.220858 69.6577 0.761636 68.9404 1.59564C68.2231 2.42964 67.8405 3.49809 67.866 4.59583C67.8372 5.6882 68.2099 6.75345 68.9143 7.59142C69.6186 8.4294 70.6061 8.9824 71.691 9.14653C72.2147 9.2022 72.7415 9.22358 73.268 9.21053H82.6243C82.7573 9.21053 83.2311 9.21946 83.3507 9.23806C83.8114 9.30119 84.2346 9.5254 84.5445 9.87062C84.8544 10.2158 85.031 10.6596 85.0426 11.1225C85.0542 11.5854 84.9 12.0373 84.6078 12.3975C84.3155 12.7576 83.9041 13.0026 83.4471 13.0885C83.3044 13.1115 82.8081 13.1249 82.6474 13.1249H68.3361V15.9357H82.8791C83.054 15.9357 83.8582 15.9313 84.0241 15.9127C86.7415 15.6656 88.1623 13.4769 88.1623 11.1558C88.1623 9.11378 86.8701 6.71974 84.2498 6.46299C83.8545 6.42653 83.4546 6.41239 83.054 6.41239M55.4118 6.41239H45.7521C45.3648 6.42114 44.9777 6.38846 44.5974 6.3149C44.2214 6.21265 43.8913 5.98616 43.6616 5.67257C43.4318 5.35899 43.3159 4.97694 43.3329 4.58913C43.3279 4.20188 43.4508 3.82373 43.6827 3.51276C43.9145 3.20179 44.2424 2.97521 44.6161 2.86783C44.9762 2.7863 45.3462 2.75698 45.7147 2.78076H59.417V0.00271314H45.4898C45.0287 -0.00460517 44.5677 0.020262 44.1101 0.0771317C43.0169 0.220858 42.0155 0.761636 41.2982 1.59564C40.5809 2.42964 40.1983 3.49809 40.2238 4.59583C40.1952 5.68897 40.5687 6.75486 41.2741 7.59295C41.9795 8.43104 42.9682 8.98355 44.0541 9.14653C44.5753 9.20199 45.0996 9.22337 45.6236 9.21053H54.9858C55.1189 9.21053 55.5927 9.21946 55.7123 9.23806C56.1901 9.28693 56.6313 9.51548 56.9457 9.87711C57.2601 10.2387 57.4242 10.7062 57.4043 11.1841C57.4133 11.6397 57.2568 12.0831 56.9637 12.433C56.6705 12.7829 56.2604 13.0156 55.8087 13.0885C55.666 13.1115 55.1697 13.1249 55.009 13.1249H40.6947V15.9357H55.237C55.4118 15.9357 56.216 15.9313 56.3819 15.9127C59.0964 15.6686 60.5164 13.4725 60.5164 11.1543C60.5164 9.11229 59.2242 6.71825 56.6039 6.4615C56.2085 6.42504 55.8087 6.4109 55.4081 6.4109M29.3974 0.00271314H32.4781V15.9335H29.3974V0.00271314ZM16.0823 23.5659C14.0226 23.5659 11.8022 24.8206 11.8022 27.5763C11.8022 31.4356 15.0667 31.7333 16.0689 31.7333C17.0711 31.7333 20.3446 31.4356 20.3446 27.5763C20.3446 24.8228 18.1331 23.5659 16.0778 23.5659M16.0778 30.2777C15.4328 30.2969 14.8065 30.0603 14.3366 29.6199C13.8667 29.1795 13.5916 28.5713 13.5719 27.929C13.5695 27.8128 13.574 27.6965 13.5854 27.5808C13.576 27.2552 13.6312 26.9309 13.748 26.6267C13.8648 26.3224 14.0408 26.0441 14.2659 25.8078C14.4911 25.5714 14.7608 25.3817 15.0598 25.2495C15.3588 25.1173 15.681 25.0452 16.0081 25.0374C16.3351 25.0295 16.6604 25.0861 16.9655 25.2038C17.2705 25.3215 17.5491 25.4981 17.7854 25.7234C18.0217 25.9487 18.2109 26.2182 18.3423 26.5165C18.4737 26.8148 18.5446 27.136 18.5509 27.4617V27.5852C18.6243 28.2209 18.4413 28.8596 18.042 29.361C17.6428 29.8623 17.06 30.1854 16.4216 30.2591C16.3088 30.2727 16.1951 30.2772 16.0816 30.2725M23.6405 31.5815H25.3377V25.1041H28.023V23.7125H20.9604V25.1041H23.6412V31.5823L23.6405 31.5815ZM33.0252 23.5659C30.9654 23.5659 28.7495 24.8206 28.7495 27.5763C28.7495 31.4356 32.014 31.7333 33.0162 31.7333C34.0184 31.7333 37.2919 31.4356 37.2919 27.5763C37.2919 24.8228 35.0804 23.5659 33.0252 23.5659ZM33.0252 30.2777C32.3801 30.2969 31.7538 30.0603 31.2839 29.6199C30.814 29.1795 30.539 28.5713 30.5192 27.929C30.5168 27.8128 30.5213 27.6965 30.5327 27.5808C30.5233 27.2552 30.5786 26.9309 30.6954 26.6267C30.8121 26.3224 30.9882 26.0441 31.2133 25.8078C31.4384 25.5714 31.7082 25.3817 32.0071 25.2495C32.3061 25.1173 32.6284 25.0452 32.9554 25.0374C33.2824 25.0295 33.6078 25.0861 33.9128 25.2038C34.2178 25.3215 34.4964 25.4981 34.7327 25.7234C34.969 25.9487 35.1583 26.2182 35.2896 26.5165C35.421 26.8148 35.4919 27.136 35.4982 27.4617V27.5808C35.5344 27.8962 35.5078 28.2156 35.4199 28.5208C35.332 28.8259 35.1845 29.1108 34.9859 29.3592C34.7873 29.6075 34.5415 29.8144 34.2625 29.9681C33.9835 30.1217 33.6768 30.2191 33.36 30.2546C33.2472 30.2682 33.1335 30.2727 33.0199 30.268M43.7753 28.6107C44.3091 28.4992 44.7879 28.2079 45.1312 27.7859C45.4745 27.364 45.6613 26.8371 45.6602 26.2941C45.6602 24.156 43.8807 23.7073 42.3867 23.7073H38.6715V31.5778H40.377V28.9955H41.8621L43.7701 31.5778H45.8896L43.596 28.6539L43.7753 28.6107ZM42.0511 27.6038H40.4122V25.1041H42.0123C43.2671 25.1041 43.8747 25.4933 43.8747 26.2948C43.8747 27.1737 43.2768 27.6038 42.0496 27.6038M55.719 30.2777C53.8939 30.2777 52.7624 29.2656 52.7624 27.6358C52.7624 26.0061 53.8386 25.017 55.7923 25.017C56.5253 25.0143 57.2543 25.1255 57.9529 25.3467V23.8769C57.1951 23.6759 56.415 23.5699 55.6308 23.5614C53.4836 23.5614 50.9732 24.633 50.9732 27.6455C50.9732 30.2412 52.6608 31.7296 55.6069 31.7296C56.3994 31.7214 57.1893 31.6371 57.9656 31.4781V29.919C57.249 30.1352 56.507 30.2568 55.7586 30.2807H55.7175L55.719 30.2777ZM63.4916 23.5614C61.4319 23.5614 59.2115 24.8161 59.2115 27.5718C59.2115 31.4312 62.476 31.7289 63.4715 31.7289C64.467 31.7289 67.7472 31.4312 67.7472 27.5718C67.7472 24.8183 65.5357 23.5614 63.4872 23.5614M63.4872 30.2732C63.1674 30.2826 62.849 30.2292 62.55 30.1161C62.251 30.0029 61.9773 29.8322 61.7446 29.6137C61.5119 29.3951 61.3247 29.1331 61.1937 28.8425C61.0627 28.5519 60.9905 28.2385 60.9812 27.9201C60.9787 27.8071 60.9832 27.694 60.9947 27.5815C60.982 26.9278 61.2298 26.2957 61.6839 25.8234C62.138 25.3511 62.7615 25.0771 63.4179 25.0614C64.0744 25.0457 64.7104 25.2894 65.1868 25.7394C65.6632 26.1893 65.9413 26.8089 65.9602 27.4624V27.586C65.9965 27.9011 65.9701 28.2202 65.8826 28.5251C65.795 28.8301 65.6479 29.1148 65.4497 29.3631C65.2516 29.6114 65.0062 29.8184 64.7277 29.9723C64.4492 30.1262 64.1429 30.2239 63.8265 30.2598C63.7137 30.2734 63.6007 30.2779 63.4872 30.2732ZM74.4727 28.6115C75.0065 28.4999 75.4853 28.2086 75.8286 27.7867C76.1719 27.3647 76.3587 26.8379 76.3576 26.2948C76.3576 24.1568 74.5781 23.708 73.0841 23.708H69.3757V31.5778H71.0767V28.9955H72.5617L74.4653 31.5778H76.5848L74.2904 28.6539L74.4742 28.6129L74.4727 28.6115ZM72.7441 27.6046H71.1073V25.1041H72.7075C73.9623 25.1041 74.5699 25.4933 74.5699 26.2948C74.5699 27.1737 73.972 27.6038 72.7448 27.6038M81.8851 23.7125H78.223V31.5823H79.9195V29.3497H81.8963C83.5607 29.3497 85.3342 28.6055 85.3342 26.5218C85.3342 24.6308 84.208 23.711 81.8814 23.711M81.7162 27.9529H79.9181V25.1086H81.6789C82.548 25.1086 83.5413 25.2641 83.5413 26.4771C83.5413 27.7817 82.6168 27.9558 81.7162 27.9558M90.7556 23.5696C88.6959 23.5696 86.4747 24.8243 86.4747 27.58C86.4747 31.4394 89.7392 31.737 90.7414 31.737C91.7437 31.737 95.0171 31.4394 95.0171 27.58C95.0171 24.8265 92.8057 23.5696 90.7504 23.5696M90.7504 30.2814C90.1054 30.3007 89.4791 30.0641 89.0092 29.6236C88.5393 29.1832 88.2642 28.575 88.2445 27.9328C88.242 27.8197 88.2465 27.7066 88.2579 27.5942C88.2485 27.2686 88.3038 26.9443 88.4206 26.6401C88.5374 26.3358 88.7134 26.0575 88.9385 25.8212C89.1636 25.5848 89.4334 25.3951 89.7324 25.2629C90.0314 25.1307 90.3536 25.0586 90.6806 25.0508C91.0077 25.0429 91.333 25.0995 91.638 25.2172C91.943 25.3349 92.2217 25.5115 92.458 25.7368C92.6942 25.9621 92.8835 26.2316 93.0149 26.5299C93.1462 26.8282 93.2171 27.1494 93.2235 27.4751V27.5986C93.2596 27.9141 93.233 28.2337 93.145 28.5389C93.057 28.8442 92.9094 29.1291 92.7106 29.3775C92.5119 29.6259 92.2659 29.8328 91.9867 29.9863C91.7075 30.1399 91.4007 30.2371 91.0837 30.2725C90.9709 30.2861 90.8572 30.2906 90.7437 30.2859M101.73 28.6241C102.263 28.5117 102.742 28.2201 103.085 27.7984C103.428 27.3766 103.615 26.8503 103.615 26.3075C103.615 24.1694 101.835 23.7207 100.341 23.7207H96.6262V31.5912H98.3332V29.0089H99.8182L101.722 31.5912H103.841L101.542 28.6702L101.731 28.6241H101.73ZM100.006 27.6172H98.3691V25.1175H99.9774C101.232 25.1175 101.84 25.5067 101.84 26.3082C101.84 27.1871 101.242 27.6172 100.015 27.6172M107.734 23.7259L104.745 31.5956H106.428L106.962 30.1214H110.964L111.442 31.5956H113.318L110.265 23.7259H107.734ZM107.451 28.7283L108.936 24.8585L110.476 28.7283H107.451ZM115.566 31.5942H117.267V25.1175H119.948V23.7259H112.886V25.1175H115.567L115.566 31.5942ZM121.612 23.7244H123.313V31.5956H121.612V23.7244ZM129.304 23.5756C127.244 23.5756 125.024 24.8302 125.024 27.586C125.024 31.4453 128.288 31.743 129.291 31.743C130.293 31.743 133.571 31.4453 133.571 27.586C133.571 24.8325 131.359 23.5756 129.304 23.5756ZM129.304 30.2874C128.984 30.2968 128.666 30.2434 128.367 30.1302C128.068 30.017 127.794 29.8463 127.562 29.6278C127.329 29.4093 127.142 29.1472 127.011 28.8566C126.88 28.5661 126.808 28.2526 126.798 27.9342C126.796 27.8197 126.8 27.7052 126.812 27.5912C126.802 27.2656 126.858 26.9413 126.974 26.6371C127.091 26.3328 127.267 26.0545 127.492 25.8182C127.717 25.5819 127.987 25.3921 128.286 25.2599C128.585 25.1277 128.907 25.0556 129.234 25.0478C129.561 25.0399 129.887 25.0965 130.192 25.2142C130.497 25.332 130.775 25.5085 131.012 25.7338C131.248 25.9591 131.437 26.2286 131.569 26.5269C131.7 26.8252 131.771 27.1464 131.777 27.4721V27.5956C131.813 27.9111 131.787 28.2305 131.699 28.5356C131.611 28.8408 131.463 29.1257 131.265 29.374C131.066 29.6224 130.82 29.8293 130.541 29.983C130.262 30.1366 129.956 30.234 129.639 30.2695C129.526 30.2831 129.412 30.2876 129.299 30.2829M140.899 29.0833L137.234 23.7422H135.178V31.6009H136.838V25.8706L140.82 31.6009H142.568V23.7422H140.903V29.09L140.899 29.0833ZM2.39951 23.7169H0.652161V31.5867H2.35317V26.7659L4.91889 31.5867H6.10795L8.66918 26.7659V31.5867H10.368V23.7169H8.61986L5.51006 29.4256L2.40399 23.7169H2.39951ZM17.6092 12.7335L4.95999 0.00271314H0.652161V15.9335H3.73281V3.12383L16.4642 15.9335H20.6816V0.00271314H17.604V12.7335H17.6092ZM139.505 12.7335L126.857 0.00271314H122.554V15.9335H125.635V3.12383L138.37 15.9335H142.591V0.00271314H139.513V12.7335H139.505ZM103.285 0.00271314L93.293 15.9335H97.0537L98.893 12.985H111.299L113.143 15.9335H116.895L106.917 0.00271314H103.289H103.285ZM100.42 10.4503L105.101 2.96532L109.772 10.4503H100.426H100.42Z" fill="white"/>
<mask id="mask0_2120_4428" style="mask-type:luminance" maskUnits="userSpaceOnUse" x="0" y="0" width="143" height="16">
<path d="M83.054 6.4139H73.3943C73.0073 6.42309 72.6204 6.39091 72.2403 6.3179C71.865 6.21495 71.5358 5.98815 71.3068 5.67463C71.0777 5.36111 70.9623 4.97945 70.9795 4.59213C70.9745 4.20498 71.0973 3.8269 71.329 3.51594C71.5607 3.20499 71.8885 2.97835 72.262 2.87083C72.6221 2.7893 72.9921 2.75998 73.3606 2.78376H87.0629V0.00124829H73.132C72.6709 -0.00607002 72.2099 0.0187971 71.7523 0.0756669C70.6591 0.219393 69.6577 0.760171 68.9404 1.59417C68.2231 2.42818 67.8405 3.49662 67.866 4.59436C67.8372 5.68673 68.2099 6.75199 68.9143 7.58996C69.6186 8.42793 70.6061 8.98094 71.691 9.14506C72.2147 9.20074 72.7415 9.22212 73.268 9.20906H82.6243C82.7573 9.20906 83.2311 9.21799 83.3507 9.2366C83.8114 9.29972 84.2346 9.52394 84.5445 9.86915C84.8544 10.2144 85.031 10.6581 85.0426 11.121C85.0542 11.5839 84.9 12.0358 84.6078 12.396C84.3155 12.7562 83.9041 13.0011 83.4471 13.087C83.3044 13.1101 82.8081 13.1235 82.6474 13.1235H68.3361V15.9343H82.8791C83.054 15.9343 83.8582 15.9298 84.0241 15.9112C86.7415 15.6641 88.1623 13.4755 88.1623 11.1544C88.1623 9.11232 86.8701 6.71827 84.2498 6.46153C83.8545 6.42506 83.4546 6.41092 83.054 6.41092M55.4118 6.41092H45.7521C45.3648 6.41968 44.9777 6.387 44.5974 6.31343C44.2214 6.21119 43.8913 5.98469 43.6616 5.67111C43.4318 5.35752 43.3159 4.97548 43.3329 4.58767C43.3279 4.20042 43.4508 3.82226 43.6827 3.51129C43.9145 3.20033 44.2424 2.97375 44.6161 2.86636C44.9762 2.78484 45.3462 2.75551 45.7147 2.77929H59.417V0.00124829H45.4898C45.0287 -0.00607002 44.5677 0.0187971 44.1101 0.0756669C43.0169 0.219393 42.0155 0.760171 41.2982 1.59417C40.5809 2.42818 40.1983 3.49662 40.2238 4.59436C40.1952 5.6875 40.5687 6.7534 41.2741 7.59149C41.9795 8.42958 42.9682 8.98209 44.0541 9.14506C44.5753 9.20052 45.0996 9.2219 45.6236 9.20906H54.9858C55.1189 9.20906 55.5927 9.21799 55.7123 9.2366C56.1901 9.28546 56.6313 9.51402 56.9457 9.87565C57.2601 10.2373 57.4242 10.7047 57.4043 11.1826C57.4133 11.6382 57.2568 12.0817 56.9637 12.4315C56.6705 12.7814 56.2604 13.0141 55.8087 13.087C55.666 13.1101 55.1697 13.1235 55.009 13.1235H40.6947V15.9343H55.237C55.4118 15.9343 56.216 15.9298 56.3819 15.9112C59.0964 15.6671 60.5164 13.471 60.5164 11.1529C60.5164 9.11083 59.2242 6.71678 56.6039 6.46004C56.2085 6.42357 55.8087 6.40943 55.4081 6.40943M29.3974 0.00124829H32.4781V15.932H29.3974V0.00124829ZM17.6092 12.732L4.95999 0.00124829H0.652161V15.932H3.73281V3.12236L16.4642 15.932H20.6816V0.00124829H17.604V12.732H17.6092ZM139.505 12.732L126.857 0.00124829H122.554V15.932H125.635V3.12236L138.37 15.932H142.591V0.00124829H139.513V12.732H139.505ZM103.285 0.00124829L93.293 15.932H97.0537L98.893 12.9836H111.299L113.143 15.932H116.895L106.917 0.00124829H103.289H103.285ZM100.42 10.4489L105.101 2.96385L109.772 10.4489H100.426H100.42Z" fill="white"/>
</mask>
<g mask="url(#mask0_2120_4428)">
<path d="M145.482 -4.99524H-0.727478V16.9806H145.482V-4.99524Z" fill="white"/>
</g>
</g>
<defs>
<clipPath id="clip0_2120_4428">
<rect width="142" height="32" fill="white" transform="translate(0.652161)"/>
</clipPath>
</defs>
</svg>
