<svg width="24" height="24" viewBox="0 0 24 24" fill="none" xmlns="http://www.w3.org/2000/svg">
<path d="M19.9413 11.9301C19.4628 12.4086 18.6872 12.4086 18.2087 11.9301L13.0112 6.73258C12.5327 6.25416 12.5327 5.47848 13.0112 5.00006L15.1768 2.8344C15.6552 2.35598 16.4309 2.35598 16.9093 2.8344L22.1069 8.03197C22.5853 8.51039 22.5853 9.28607 22.1069 9.76449L19.9413 11.9301Z" stroke="#848484" stroke-width="1.5" stroke-linecap="round"/>
<path d="M3.48047 21.4589L8.67804 16.2613M9.11117 12.3631C10.068 11.4063 11.6194 11.4063 12.5762 12.3631C13.5331 13.32 13.5331 14.8713 12.5762 15.8282C11.6194 16.785 10.068 16.785 9.11117 15.8282C8.15432 14.8713 8.15432 13.32 9.11117 12.3631Z" stroke="#848484" stroke-width="1.5" stroke-linecap="round"/>
<path d="M16.6044 18.0943L18.6379 12.3636L12.574 6.2998L6.70667 8.13335C6.05346 8.33748 5.56779 8.8877 5.44634 9.56121L3.26172 21.6759L15.233 19.2817C15.8672 19.1548 16.3881 18.7039 16.6044 18.0943Z" stroke="white" stroke-width="1.5" stroke-linecap="round" stroke-linejoin="round"/>
</svg>
