<svg width="199" height="32" viewBox="0 0 199 32" fill="none" xmlns="http://www.w3.org/2000/svg">
<path d="M0.729065 5.56522C0.729065 2.49163 3.2207 0 6.29428 0H27.1638C30.2374 0 32.7291 2.49163 32.7291 5.56522V26.4348C32.7291 29.5084 30.2374 32 27.1638 32H6.29428C3.2207 32 0.729065 29.5084 0.729065 26.4348V5.56522Z" fill="white"/>
<path d="M15.3825 20.7847H13.7069V11.2153H17.3593C19.5324 11.2153 20.8022 12.3149 20.8022 14.2C20.8022 15.4829 20.2 16.3993 19.0742 16.8575L20.8938 20.7847H19.0611L17.4378 17.2109H15.3825V20.7847ZM15.3825 12.7076V15.7316H17.3593C18.4196 15.7316 19.048 15.1687 19.048 14.2C19.048 13.2444 18.4196 12.7076 17.3593 12.7076H15.3825Z" fill="black"/>
<path fill-rule="evenodd" clip-rule="evenodd" d="M23.9982 5.07507L26.1834 10.2277L20.6284 9.54381L21.8366 7.95159C20.3171 7.26514 18.7511 6.79511 16.974 6.79511C13.4794 6.79511 10.4133 8.27186 8.20117 10.639L7.27509 9.70833C9.66291 7.1532 13.1999 5.63062 16.974 5.63062C18.9692 5.63062 20.9524 6.1066 22.6457 6.90595L23.9982 5.07507Z" fill="black"/>
<path fill-rule="evenodd" clip-rule="evenodd" d="M9.0741 26.9249L6.7729 21.4986L12.6228 22.2189L11.3504 23.8957C12.9506 24.6186 14.5998 25.1135 16.4713 25.1135C20.1514 25.1135 23.3803 23.5584 25.71 21.0655L26.6852 22.0456C24.1706 24.7365 20.4458 26.3399 16.4713 26.3399C14.3701 26.3399 12.2816 25.8386 10.4985 24.9968L9.0741 26.9249Z" fill="black"/>
<path d="M46.337 24V7.2H52.625C53.969 7.2 55.081 7.432 55.961 7.896C56.857 8.36 57.521 8.984 57.953 9.768C58.385 10.536 58.601 11.392 58.601 12.336C58.601 13.232 58.385 14.072 57.953 14.856C57.537 15.624 56.881 16.248 55.985 16.728C55.105 17.192 53.969 17.424 52.577 17.424H49.577V24H46.337ZM55.049 24L51.593 16.608H55.097L58.745 24H55.049ZM49.577 15.072H52.409C53.401 15.072 54.129 14.832 54.593 14.352C55.057 13.872 55.289 13.24 55.289 12.456C55.289 11.672 55.057 11.056 54.593 10.608C54.129 10.144 53.401 9.912 52.409 9.912H49.577V15.072ZM66.4648 24.288C65.2488 24.288 64.1688 24.032 63.2248 23.52C62.2968 23.008 61.5688 22.288 61.0408 21.36C60.5128 20.432 60.2488 19.368 60.2488 18.168C60.2488 16.92 60.5048 15.824 61.0168 14.88C61.5448 13.92 62.2728 13.168 63.2008 12.624C64.1448 12.08 65.2408 11.808 66.4888 11.808C67.6728 11.808 68.7128 12.064 69.6088 12.576C70.5208 13.088 71.2248 13.792 71.7208 14.688C72.2328 15.568 72.4888 16.568 72.4888 17.688C72.4888 17.848 72.4888 18.032 72.4888 18.24C72.4888 18.432 72.4728 18.632 72.4408 18.84H62.5768V16.848H69.2008C69.1528 16.128 68.8728 15.544 68.3608 15.096C67.8648 14.648 67.2408 14.424 66.4888 14.424C65.9288 14.424 65.4168 14.552 64.9528 14.808C64.4888 15.048 64.1208 15.416 63.8488 15.912C63.5768 16.408 63.4408 17.032 63.4408 17.784V18.48C63.4408 19.12 63.5688 19.68 63.8248 20.16C64.0808 20.64 64.4328 21.008 64.8808 21.264C65.3448 21.52 65.8648 21.648 66.4408 21.648C67.0328 21.648 67.5288 21.52 67.9288 21.264C68.3288 20.992 68.6328 20.648 68.8408 20.232H72.1528C71.9128 20.984 71.5288 21.672 71.0008 22.296C70.4728 22.904 69.8248 23.392 69.0568 23.76C68.2888 24.112 67.4248 24.288 66.4648 24.288ZM75.0703 29.28V12.096H77.9503L78.3103 13.752C78.5663 13.4 78.8703 13.08 79.2223 12.792C79.5743 12.488 79.9983 12.248 80.4943 12.072C80.9903 11.896 81.5663 11.808 82.2223 11.808C83.3423 11.808 84.3343 12.08 85.1983 12.624C86.0783 13.168 86.7743 13.912 87.2863 14.856C87.7983 15.8 88.0543 16.872 88.0543 18.072C88.0543 19.256 87.7983 20.32 87.2863 21.264C86.7743 22.208 86.0783 22.952 85.1983 23.496C84.3343 24.024 83.3423 24.288 82.2223 24.288C81.3423 24.288 80.5743 24.128 79.9183 23.808C79.2623 23.472 78.7263 23.016 78.3103 22.44V29.28H75.0703ZM81.5023 21.456C82.1263 21.456 82.6863 21.312 83.1823 21.024C83.6783 20.736 84.0623 20.336 84.3343 19.824C84.6223 19.312 84.7663 18.728 84.7663 18.072C84.7663 17.4 84.6223 16.808 84.3343 16.296C84.0623 15.784 83.6783 15.384 83.1823 15.096C82.6863 14.792 82.1263 14.64 81.5023 14.64C80.8623 14.64 80.2943 14.792 79.7983 15.096C79.3023 15.384 78.9103 15.784 78.6223 16.296C78.3503 16.808 78.2143 17.392 78.2143 18.048C78.2143 18.704 78.3503 19.296 78.6223 19.824C78.9103 20.336 79.3023 20.736 79.7983 21.024C80.2943 21.312 80.8623 21.456 81.5023 21.456ZM95.2843 24.288C94.2923 24.288 93.4443 24.08 92.7403 23.664C92.0523 23.248 91.5243 22.632 91.1563 21.816C90.8043 20.984 90.6283 19.968 90.6283 18.768V12.096H93.8443V18.48C93.8443 19.472 94.0443 20.232 94.4443 20.76C94.8443 21.288 95.4763 21.552 96.3403 21.552C96.9003 21.552 97.3963 21.424 97.8283 21.168C98.2603 20.896 98.5963 20.52 98.8363 20.04C99.0763 19.544 99.1963 18.944 99.1963 18.24V12.096H102.436V24H99.5803L99.3403 22.008C98.9563 22.696 98.4203 23.248 97.7323 23.664C97.0443 24.08 96.2283 24.288 95.2843 24.288ZM105.562 24V12.096H108.442L108.754 14.328C109.042 13.816 109.394 13.376 109.81 13.008C110.242 12.624 110.73 12.328 111.274 12.12C111.834 11.912 112.442 11.808 113.098 11.808V15.24H112.21C111.714 15.24 111.25 15.296 110.818 15.408C110.402 15.52 110.042 15.704 109.738 15.96C109.434 16.216 109.202 16.568 109.042 17.016C108.882 17.448 108.802 18 108.802 18.672V24H105.562ZM115.195 29.28V12.096H118.075L118.435 13.752C118.691 13.4 118.995 13.08 119.347 12.792C119.699 12.488 120.123 12.248 120.619 12.072C121.115 11.896 121.691 11.808 122.347 11.808C123.467 11.808 124.459 12.08 125.323 12.624C126.203 13.168 126.899 13.912 127.411 14.856C127.923 15.8 128.179 16.872 128.179 18.072C128.179 19.256 127.923 20.32 127.411 21.264C126.899 22.208 126.203 22.952 125.323 23.496C124.459 24.024 123.467 24.288 122.347 24.288C121.467 24.288 120.699 24.128 120.043 23.808C119.387 23.472 118.851 23.016 118.435 22.44V29.28H115.195ZM121.627 21.456C122.251 21.456 122.811 21.312 123.307 21.024C123.803 20.736 124.187 20.336 124.459 19.824C124.747 19.312 124.891 18.728 124.891 18.072C124.891 17.4 124.747 16.808 124.459 16.296C124.187 15.784 123.803 15.384 123.307 15.096C122.811 14.792 122.251 14.64 121.627 14.64C120.987 14.64 120.419 14.792 119.923 15.096C119.427 15.384 119.035 15.784 118.747 16.296C118.475 16.808 118.339 17.392 118.339 18.048C118.339 18.704 118.475 19.296 118.747 19.824C119.035 20.336 119.427 20.736 119.923 21.024C120.419 21.312 120.987 21.456 121.627 21.456ZM136.657 24.288C135.521 24.288 134.489 24.024 133.561 23.496C132.649 22.968 131.921 22.232 131.377 21.288C130.833 20.344 130.561 19.264 130.561 18.048C130.561 16.816 130.833 15.736 131.377 14.808C131.921 13.864 132.657 13.128 133.585 12.6C134.513 12.072 135.545 11.808 136.681 11.808C137.833 11.808 138.873 12.072 139.801 12.6C140.729 13.128 141.457 13.864 141.985 14.808C142.529 15.736 142.801 16.816 142.801 18.048C142.801 19.28 142.529 20.368 141.985 21.312C141.441 22.24 140.705 22.968 139.777 23.496C138.865 24.024 137.825 24.288 136.657 24.288ZM136.681 21.48C137.193 21.48 137.657 21.352 138.073 21.096C138.505 20.84 138.849 20.456 139.105 19.944C139.377 19.432 139.513 18.8 139.513 18.048C139.513 17.28 139.385 16.648 139.129 16.152C138.873 15.64 138.529 15.256 138.097 15C137.681 14.744 137.217 14.616 136.705 14.616C136.193 14.616 135.721 14.744 135.289 15C134.857 15.256 134.513 15.64 134.257 16.152C134.001 16.648 133.873 17.28 133.873 18.048C133.873 18.8 134.001 19.432 134.257 19.944C134.513 20.456 134.849 20.84 135.265 21.096C135.697 21.352 136.169 21.48 136.681 21.48ZM150.491 24.288C149.435 24.288 148.499 24.112 147.683 23.76C146.883 23.408 146.235 22.928 145.739 22.32C145.259 21.696 144.979 20.992 144.899 20.208H148.139C148.203 20.496 148.339 20.768 148.547 21.024C148.755 21.264 149.019 21.456 149.339 21.6C149.659 21.744 150.027 21.816 150.443 21.816C150.891 21.816 151.243 21.76 151.499 21.648C151.771 21.52 151.971 21.36 152.099 21.168C152.243 20.96 152.315 20.752 152.315 20.544C152.315 20.224 152.211 19.984 152.003 19.824C151.811 19.648 151.531 19.504 151.163 19.392C150.795 19.28 150.355 19.16 149.843 19.032C149.315 18.904 148.779 18.76 148.235 18.6C147.707 18.44 147.219 18.24 146.771 18C146.323 17.744 145.963 17.424 145.691 17.04C145.419 16.656 145.283 16.168 145.283 15.576C145.283 14.872 145.475 14.24 145.859 13.68C146.259 13.104 146.819 12.648 147.539 12.312C148.275 11.976 149.147 11.808 150.155 11.808C151.595 11.808 152.739 12.136 153.587 12.792C154.451 13.448 154.955 14.352 155.099 15.504H152.051C151.971 15.12 151.763 14.824 151.427 14.616C151.107 14.408 150.683 14.304 150.155 14.304C149.595 14.304 149.163 14.408 148.859 14.616C148.571 14.824 148.427 15.08 148.427 15.384C148.427 15.608 148.531 15.8 148.739 15.96C148.947 16.12 149.235 16.264 149.603 16.392C149.987 16.504 150.427 16.616 150.923 16.728C151.787 16.936 152.563 17.16 153.251 17.4C153.939 17.624 154.491 17.96 154.907 18.408C155.339 18.856 155.555 19.512 155.555 20.376C155.571 21.112 155.371 21.776 154.955 22.368C154.539 22.96 153.955 23.432 153.203 23.784C152.451 24.12 151.547 24.288 150.491 24.288ZM164.082 24.288C162.866 24.288 161.786 24.032 160.842 23.52C159.914 23.008 159.186 22.288 158.658 21.36C158.13 20.432 157.866 19.368 157.866 18.168C157.866 16.92 158.122 15.824 158.634 14.88C159.162 13.92 159.89 13.168 160.818 12.624C161.762 12.08 162.858 11.808 164.106 11.808C165.29 11.808 166.33 12.064 167.226 12.576C168.138 13.088 168.842 13.792 169.338 14.688C169.85 15.568 170.106 16.568 170.106 17.688C170.106 17.848 170.106 18.032 170.106 18.24C170.106 18.432 170.09 18.632 170.058 18.84H160.194V16.848H166.818C166.77 16.128 166.49 15.544 165.978 15.096C165.482 14.648 164.858 14.424 164.106 14.424C163.546 14.424 163.034 14.552 162.57 14.808C162.106 15.048 161.738 15.416 161.466 15.912C161.194 16.408 161.058 17.032 161.058 17.784V18.48C161.058 19.12 161.186 19.68 161.442 20.16C161.698 20.64 162.05 21.008 162.498 21.264C162.962 21.52 163.482 21.648 164.058 21.648C164.65 21.648 165.146 21.52 165.546 21.264C165.946 20.992 166.25 20.648 166.458 20.232H169.77C169.53 20.984 169.146 21.672 168.618 22.296C168.09 22.904 167.442 23.392 166.674 23.76C165.906 24.112 165.042 24.288 164.082 24.288ZM174.103 24.12C173.495 24.12 173.007 23.944 172.639 23.592C172.271 23.224 172.087 22.776 172.087 22.248C172.087 21.72 172.271 21.28 172.639 20.928C173.007 20.56 173.495 20.376 174.103 20.376C174.695 20.376 175.175 20.56 175.543 20.928C175.911 21.28 176.095 21.72 176.095 22.248C176.095 22.776 175.911 23.224 175.543 23.592C175.175 23.944 174.695 24.12 174.103 24.12ZM178.713 24V12.096H181.953V24H178.713ZM180.321 10.368C179.745 10.368 179.265 10.2 178.881 9.864C178.513 9.512 178.329 9.072 178.329 8.544C178.329 8.016 178.513 7.584 178.881 7.248C179.265 6.896 179.745 6.72 180.321 6.72C180.913 6.72 181.393 6.896 181.761 7.248C182.145 7.584 182.337 8.016 182.337 8.544C182.337 9.072 182.145 9.512 181.761 9.864C181.393 10.2 180.913 10.368 180.321 10.368ZM190.868 24.288C189.732 24.288 188.7 24.024 187.772 23.496C186.86 22.968 186.132 22.232 185.588 21.288C185.044 20.344 184.772 19.264 184.772 18.048C184.772 16.816 185.044 15.736 185.588 14.808C186.132 13.864 186.868 13.128 187.796 12.6C188.724 12.072 189.756 11.808 190.892 11.808C192.044 11.808 193.084 12.072 194.012 12.6C194.94 13.128 195.668 13.864 196.196 14.808C196.74 15.736 197.012 16.816 197.012 18.048C197.012 19.28 196.74 20.368 196.196 21.312C195.652 22.24 194.916 22.968 193.988 23.496C193.076 24.024 192.036 24.288 190.868 24.288ZM190.892 21.48C191.404 21.48 191.868 21.352 192.284 21.096C192.716 20.84 193.06 20.456 193.316 19.944C193.588 19.432 193.724 18.8 193.724 18.048C193.724 17.28 193.596 16.648 193.34 16.152C193.084 15.64 192.74 15.256 192.308 15C191.892 14.744 191.428 14.616 190.916 14.616C190.404 14.616 189.932 14.744 189.5 15C189.068 15.256 188.724 15.64 188.468 16.152C188.212 16.648 188.084 17.28 188.084 18.048C188.084 18.8 188.212 19.432 188.468 19.944C188.724 20.456 189.06 20.84 189.476 21.096C189.908 21.352 190.38 21.48 190.892 21.48Z" fill="white"/>
</svg>
