<svg width="16" height="16" viewBox="0 0 16 16" fill="none" xmlns="http://www.w3.org/2000/svg">
<g clip-path="url(#clip0_2120_3723)">
<path fill-rule="evenodd" clip-rule="evenodd" d="M3.25052 5.96268L7.98283 15.2252L0.0286865 5.96268H3.25052Z" fill="#EA6C00"/>
<path fill-rule="evenodd" clip-rule="evenodd" d="M12.7171 5.96268L7.98483 15.2252L15.939 5.96268H12.7171Z" fill="#EA6C00"/>
<path fill-rule="evenodd" clip-rule="evenodd" d="M3.25061 5.96268H12.7152L7.98291 15.2252L3.25061 5.96268Z" fill="#FDAD00"/>
<path fill-rule="evenodd" clip-rule="evenodd" d="M7.98291 0.829208L3.49969 1.30311L3.25061 5.96249L7.98291 0.829208Z" fill="#FDD231"/>
<path fill-rule="evenodd" clip-rule="evenodd" d="M7.98334 0.829208L12.4666 1.30311L12.7156 5.96249L7.98334 0.829208Z" fill="#FDD231"/>
<path fill-rule="evenodd" clip-rule="evenodd" d="M15.939 5.9624L12.468 1.30302L12.7171 5.9624H15.939Z" fill="#FDAD00"/>
<path fill-rule="evenodd" clip-rule="evenodd" d="M0.0286865 5.9624L3.4996 1.30302L3.25052 5.9624H0.0286865Z" fill="#FDAD00"/>
<path fill-rule="evenodd" clip-rule="evenodd" d="M7.98291 0.829208L3.25061 5.96249H12.7152L7.98291 0.829208Z" fill="#FEEEB7"/>
</g>
<defs>
<clipPath id="clip0_2120_3723">
<rect width="16" height="14.4832" fill="white" transform="translate(0.000183105 0.758392)"/>
</clipPath>
</defs>
</svg>
