<svg width="91" height="30" viewBox="0 0 91 30" fill="none" xmlns="http://www.w3.org/2000/svg">
<g clip-path="url(#clip0_57465_59720)">
<path d="M38.1949 0.766546H40.263V0.276513H35.6367V0.766546H37.6965V6.09047H38.1949V0.766546ZM42.1068 1.93764C41.8779 1.93476 41.6526 1.99433 41.455 2.10994C41.2575 2.22555 41.0952 2.39283 40.9856 2.59379L40.9108 1.93764H40.5232V6.09047H40.9966V3.73166C40.9966 2.9011 41.3704 2.39445 42.1013 2.39445H42.6162V1.93764H42.1068ZM46.3925 1.93764V4.21339C46.3925 5.08548 45.944 5.71671 45.1052 5.71671C44.4158 5.71671 43.9174 5.27651 43.9174 4.33797V1.93764H43.4357V4.42934C43.4357 5.49246 44.0448 6.17352 45.0304 6.17352C45.3099 6.1902 45.5883 6.12529 45.8316 5.98668C46.0749 5.84807 46.2727 5.64174 46.4008 5.39279L46.4756 6.09047H46.8632V1.93764H46.3925ZM47.8875 4.90276C47.9125 5.67518 48.5188 6.17352 49.6068 6.17352C50.5454 6.17352 51.2596 5.71671 51.2596 4.92768C51.2596 4.27153 50.8859 3.9393 50.1467 3.83133L49.2663 3.69844C48.7015 3.62369 48.4606 3.41605 48.4606 3.01738C48.4606 2.53565 48.9091 2.26156 49.5487 2.26156C50.2048 2.26156 50.6782 2.56057 50.6949 3.12535H51.1766C51.16 2.29479 50.4789 1.85459 49.5404 1.85459C48.6517 1.85459 47.9955 2.3114 47.9955 3.01738C47.9955 3.67352 48.3942 4.01405 49.1749 4.13033L50.0636 4.26322C50.562 4.32967 50.7779 4.54562 50.7779 4.9692C50.7779 5.47585 50.3128 5.76655 49.5902 5.76655C48.8676 5.76655 48.4108 5.45093 48.3859 4.90276H47.8875ZM53.4357 6.09047H53.959V5.6475H53.5022C53.4299 5.65641 53.3565 5.64842 53.2878 5.62418C53.2191 5.59994 53.1569 5.56009 53.1062 5.50777C53.0555 5.45546 53.0176 5.39209 52.9955 5.32266C52.9734 5.25323 52.9677 5.17963 52.9789 5.10763V2.36954H53.9673V1.93764H52.9789V0.87452H52.5055V1.58881C52.5055 1.82967 52.4141 1.93764 52.1483 1.93764H51.7165V2.36954H52.5055V5.13808C52.4902 5.2649 52.5036 5.39351 52.5447 5.51447C52.5857 5.63543 52.6533 5.74565 52.7426 5.83702C52.8318 5.92839 52.9404 5.99859 53.0604 6.04245C53.1803 6.08631 53.3086 6.10272 53.4357 6.09047ZM58.6766 3.88947C58.6962 3.62288 58.6593 3.35514 58.5682 3.10381C58.4772 2.85248 58.334 2.62324 58.1482 2.43111C57.9623 2.23897 57.7379 2.08829 57.4898 1.98894C57.2416 1.88958 56.9752 1.8438 56.7081 1.85459C56.43 1.84733 56.1535 1.89915 55.8969 2.00664C55.6402 2.11412 55.4093 2.27481 55.2194 2.47811C55.0294 2.68141 54.8847 2.92269 54.7949 3.18602C54.705 3.44935 54.6721 3.72874 54.6982 4.00575C54.6724 4.28408 54.7062 4.5647 54.7972 4.82898C54.8882 5.09326 55.0344 5.33516 55.2261 5.53861C55.4177 5.74207 55.6505 5.90242 55.9089 6.00902C56.1673 6.11562 56.4454 6.16603 56.7248 6.15691C57.1454 6.17675 57.5606 6.05498 57.9039 5.81106C58.2472 5.56714 58.4988 5.21516 58.6184 4.8114H58.1284C58.0223 5.0946 57.8295 5.33705 57.5774 5.50411C57.3253 5.67117 57.0269 5.7543 56.7248 5.74163C56.5169 5.74973 56.3097 5.71377 56.1167 5.63612C55.9237 5.55847 55.7493 5.44087 55.605 5.29106C55.4607 5.14124 55.3497 4.9626 55.2793 4.76685C55.2089 4.5711 55.1807 4.36267 55.1965 4.15525H58.6766V3.88947ZM56.7081 2.26156C56.9046 2.25428 57.1004 2.28788 57.2831 2.36024C57.4659 2.43259 57.6317 2.54213 57.7699 2.6819C57.9081 2.82168 58.0157 2.98864 58.086 3.1722C58.1563 3.35577 58.1877 3.55194 58.1782 3.74827H55.2048C55.2022 3.55091 55.2395 3.35505 55.3143 3.17241C55.3892 2.98978 55.5001 2.82411 55.6404 2.68531C55.7808 2.54652 55.9476 2.43746 56.1311 2.36465C56.3146 2.29184 56.5108 2.25678 56.7081 2.26156ZM63.1201 0.0273438V2.67685C62.9471 2.41459 62.7095 2.20123 62.4303 2.05724C62.151 1.91324 61.8394 1.84346 61.5254 1.85459C61.2475 1.85583 60.9729 1.91469 60.7189 2.02745C60.4649 2.1402 60.2371 2.3044 60.0498 2.50968C59.8624 2.71495 59.7197 2.95683 59.6306 3.22006C59.5415 3.48328 59.5079 3.76212 59.5321 4.03897C59.5085 4.31327 59.5427 4.58948 59.6326 4.8497C59.7225 5.10993 59.8661 5.34837 60.054 5.54959C60.2419 5.75081 60.47 5.91032 60.7235 6.0178C60.9769 6.12528 61.2501 6.17834 61.5254 6.17352C61.8407 6.18127 62.1527 6.10826 62.4318 5.96143C62.711 5.81461 62.9479 5.59885 63.1201 5.33465L63.2032 6.09047H63.6018V0.0273438H63.1201ZM61.567 5.75824C60.6699 5.75824 60.0304 5.12701 60.0304 4.04174C60.0304 2.97031 60.6533 2.28925 61.567 2.28094C62.4224 2.27264 63.1035 2.96201 63.1035 4.04174C63.1268 4.25769 63.1044 4.47612 63.0379 4.68287C62.9713 4.88963 62.8621 5.08009 62.7172 5.24192C62.5723 5.40375 62.3951 5.53334 62.1969 5.62229C61.9988 5.71123 61.7841 5.75755 61.567 5.75824ZM66.3676 4.02236C66.3474 4.30369 66.3866 4.58613 66.4828 4.85129C66.5789 5.11645 66.7299 5.35837 66.9258 5.56131C67.1217 5.76425 67.3581 5.92366 67.6197 6.02914C67.8813 6.13462 68.1622 6.18382 68.444 6.17352C68.7259 6.18382 69.0068 6.13462 69.2684 6.02914C69.53 5.92366 69.7664 5.76425 69.9623 5.56131C70.1582 5.35837 70.3091 5.11645 70.4053 4.85129C70.5015 4.58613 70.5407 4.30369 70.5204 4.02236C70.5423 3.73987 70.5044 3.45595 70.409 3.18914C70.3137 2.92233 70.1631 2.67866 69.9671 2.47404C69.7711 2.26943 69.5341 2.10849 69.2717 2.00175C69.0092 1.895 68.7272 1.84485 68.444 1.85459C68.1609 1.84485 67.8788 1.895 67.6164 2.00175C67.3539 2.10849 67.1169 2.26943 66.921 2.47404C66.725 2.67866 66.5744 2.92233 66.479 3.18914C66.3837 3.45595 66.3457 3.73987 66.3676 4.02236ZM66.866 4.01405C66.8407 3.79294 66.8628 3.56898 66.9309 3.35709C66.9989 3.1452 67.1114 2.95024 67.2607 2.78521C67.41 2.62018 67.5928 2.48886 67.7968 2.4C68.0009 2.31114 68.2215 2.26678 68.444 2.26987C68.6666 2.26678 68.8872 2.31114 69.0912 2.4C69.2953 2.48886 69.478 2.62018 69.6274 2.78521C69.7767 2.95024 69.8891 3.1452 69.9572 3.35709C70.0252 3.56898 70.0474 3.79294 70.0221 4.01405C70.0466 4.23461 70.0238 4.45784 69.9553 4.66892C69.8869 4.88 69.7743 5.07409 69.625 5.23828C69.4757 5.40248 69.2932 5.53303 69.0896 5.62124C68.886 5.70946 68.6659 5.75333 68.444 5.74993C68.2221 5.75333 68.0021 5.70946 67.7985 5.62124C67.5949 5.53303 67.4123 5.40248 67.2631 5.23828C67.1138 5.07409 67.0012 4.88 66.9327 4.66892C66.8642 4.45784 66.8415 4.23461 66.866 4.01405ZM73.5022 1.85459C73.2164 1.83346 72.9307 1.89605 72.6799 2.0347C72.4292 2.17336 72.2242 2.38207 72.0902 2.63532L72.0155 1.93764H71.6251V6.09047H72.0985V3.81472C72.0985 2.94263 72.5553 2.3114 73.4274 2.3114C74.1472 2.3114 74.6567 2.75436 74.6567 3.69013V6.09047H75.1384V3.59877C75.1638 3.37277 75.1399 3.14394 75.0682 2.9281C74.9965 2.71227 74.8788 2.51458 74.7232 2.34871C74.5676 2.18284 74.3778 2.05275 74.167 1.96743C73.9562 1.88212 73.7293 1.84361 73.5022 1.85459Z" fill="white"/>
<path d="M73.6195 10.6766C72.7139 10.72 71.8088 10.5816 70.9576 10.2696C70.1064 9.95755 69.3262 9.47822 68.6632 8.85986C68.0003 9.47827 67.2201 9.95763 66.3689 10.2697C65.5177 10.5817 64.6126 10.72 63.707 10.6766C63.707 13.9313 63.0099 18.5946 68.6632 20.4878C74.3166 18.5941 73.6195 13.9313 73.6195 10.6766Z" fill="#3672FF"/>
<path d="M66.4453 14.8393L68.1518 16.6115L71.4287 13.2171L70.958 12.7358L68.1518 15.6434L66.9093 14.3547L66.4453 14.8393Z" fill="white"/>
<path d="M41.9228 11.6498V13.8923H41.2849L40.966 12.3973H39.451V18.0086L40.5075 18.2478V18.8258H37.0989V18.2478L38.1576 18.0086V12.3973H36.6304L36.3215 13.8923H35.6836V11.6498H41.9228ZM43.4278 16.2743C43.4154 16.6595 43.4833 17.0431 43.6271 17.4006C43.7128 17.6183 43.8647 17.8036 44.0615 17.9302C44.2582 18.0568 44.4898 18.1183 44.7235 18.106C45.0264 18.1051 45.3256 18.0388 45.6005 17.9117C45.8934 17.7763 46.1472 17.5688 46.3381 17.3087L46.8763 17.7273C46.6274 18.0744 46.3063 18.3634 45.935 18.5745C45.4884 18.8198 44.9841 18.9403 44.4748 18.9233C44.0362 18.936 43.6018 18.8347 43.214 18.6293C42.8639 18.4318 42.5835 18.1306 42.4117 17.7672C42.3078 17.5505 42.2333 17.3209 42.1902 17.0844C42.1418 16.8131 42.1184 16.5378 42.1205 16.2622C42.0709 15.4895 42.2969 14.7244 42.7583 14.1027C42.9846 13.8453 43.2667 13.6431 43.5831 13.5116C43.8996 13.3801 44.2419 13.3228 44.5839 13.3441C44.9169 13.3402 45.2478 13.3965 45.5607 13.5102C45.8391 13.611 46.0924 13.7708 46.3032 13.9787C46.5118 14.1909 46.6716 14.4459 46.7716 14.7262C46.8862 15.0475 46.9424 15.3867 46.9377 15.7278C46.9377 15.8017 46.9361 15.8731 46.9328 15.9421C46.9294 16.0112 46.9211 16.1219 46.9078 16.2743H43.4278ZM44.564 14.0318C43.8796 14.0318 43.5042 14.5671 43.4377 15.6376H45.6327V15.3784C45.6563 15.0244 45.5586 14.6729 45.3558 14.3818C45.2609 14.2649 45.1397 14.1723 45.002 14.1114C44.8644 14.0506 44.7143 14.0233 44.564 14.0318ZM50.275 13.3441C50.5611 13.3419 50.8462 13.3792 51.1221 13.4549C51.363 13.5194 51.5907 13.6256 51.7949 13.7688C51.9776 13.898 52.129 14.0666 52.2379 14.2622C52.3449 14.4576 52.3998 14.6773 52.3973 14.9C52.406 15.0241 52.3893 15.1487 52.3482 15.2661C52.307 15.3835 52.2424 15.4912 52.1581 15.5828C52.0809 15.6594 51.989 15.7196 51.888 15.7599C51.787 15.8001 51.6788 15.8195 51.5701 15.817C51.4569 15.821 51.3444 15.7989 51.2412 15.7522C51.1584 15.7118 51.0853 15.654 51.0269 15.5828C50.9709 15.514 50.9302 15.4342 50.9073 15.3485C50.8843 15.2641 50.8726 15.1769 50.8724 15.0894C50.8683 14.9371 50.9119 14.7873 50.997 14.6608C51.0889 14.5349 51.2206 14.4436 51.3707 14.4017C51.2598 14.2694 51.1152 14.1695 50.9521 14.1127C50.7517 14.0366 50.5386 13.999 50.3242 14.0019C50.1308 13.9984 49.9388 14.0362 49.7611 14.1127C49.5932 14.1901 49.45 14.3126 49.3475 14.4665C49.2204 14.6638 49.1324 14.8838 49.0884 15.1143C49.0231 15.4407 48.993 15.7732 48.9987 16.106C48.992 16.3901 49.0154 16.6741 49.0684 16.9532C49.1081 17.14 49.1718 17.3209 49.2578 17.4914C49.3548 17.6738 49.4951 17.8295 49.6664 17.9449C49.858 18.062 50.0799 18.1198 50.3043 18.111C50.4469 18.1099 50.5889 18.0932 50.7279 18.0612C50.8785 18.0276 51.0254 17.9792 51.1664 17.9167C51.3119 17.8519 51.4491 17.77 51.5751 17.6725C51.7068 17.5705 51.8227 17.4496 51.9189 17.3137L52.4571 17.7323C52.1848 18.1291 51.8117 18.4463 51.3763 18.6514C50.9639 18.835 50.5171 18.9284 50.0657 18.9255C49.6296 18.9401 49.1972 18.8423 48.8098 18.6415C48.468 18.4492 48.1906 18.1603 48.0125 17.8109C47.8927 17.5794 47.8039 17.3331 47.7484 17.0783C47.6833 16.785 47.6515 16.4852 47.6537 16.1846C47.6483 15.787 47.709 15.3913 47.8331 15.0136C47.9421 14.6831 48.1167 14.378 48.3464 14.1165C48.5727 13.8648 48.8541 13.6686 49.1686 13.5435C49.5209 13.4056 49.8967 13.3379 50.275 13.3441ZM57.1321 16.1547C57.1321 15.9421 57.1288 15.7576 57.1221 15.601C57.1155 15.4445 57.1063 15.3085 57.0944 15.193C57.0874 15.0936 57.0707 14.9951 57.0446 14.8989C57.0244 14.8276 56.9994 14.7577 56.9699 14.6896C56.8891 14.5311 56.7631 14.4001 56.6079 14.3132C56.4526 14.2263 56.2751 14.1873 56.0978 14.2013C55.9095 14.2018 55.7244 14.2498 55.5596 14.3408C55.3883 14.4323 55.2466 14.5706 55.1509 14.7395C55.0887 14.8559 55.0418 14.9798 55.0114 15.1082C54.9678 15.2944 54.9477 15.4852 54.9516 15.6763V18.0783L55.6194 18.2677V18.8258H52.9162V18.2677L53.6836 18.0783V11.7993L52.9162 11.6099V11.0518H54.9494V14.3807C55.1098 14.0743 55.3445 13.813 55.6321 13.621C55.9082 13.4378 56.2327 13.3414 56.564 13.3441C56.809 13.338 57.0534 13.3733 57.2866 13.4488C57.4815 13.5175 57.6574 13.6313 57.7999 13.781C58.0212 14.0218 58.1772 14.3151 58.2534 14.6332C58.3608 15.0885 58.4094 15.5558 58.3979 16.0235V18.0783L59.1653 18.2677V18.8258H56.4643V18.2677L57.1321 18.0783V16.1547ZM41.6637 24.4482C41.6651 24.8203 41.5304 25.1802 41.2849 25.4598C41.1646 25.5966 41.0212 25.7113 40.8613 25.7987C40.6959 25.8893 40.5151 25.9484 40.3281 25.9731V26.013C40.7968 26.0991 41.226 26.3318 41.554 26.6775C41.8544 27.0109 42.015 27.447 42.0025 27.8956C42.006 28.2622 41.9039 28.622 41.7085 28.9322C41.5297 29.2284 41.2728 29.4698 40.966 29.6298C40.8682 29.6782 40.7665 29.7182 40.662 29.7494C40.5361 29.7863 40.4079 29.8146 40.2783 29.8342C40.1131 29.8593 39.9468 29.876 39.7799 29.884C39.5939 29.8947 39.3779 29.9 39.1321 29.9H35.853V29.322L36.6902 29.1127V23.5113L35.853 23.302V22.724H39.5009C40.0836 22.6861 40.6595 22.8674 41.1155 23.2323C41.2864 23.3891 41.4237 23.579 41.5191 23.7904C41.6141 23.9967 41.6634 24.2211 41.6637 24.4482ZM37.9859 26.5224V29.1525H38.7833C39.0301 29.1568 39.2768 29.1401 39.5208 29.1027C39.685 29.077 39.8435 29.0231 39.9892 28.9432C40.1763 28.8426 40.3291 28.6884 40.4278 28.5003C40.5442 28.2841 40.6026 28.0414 40.5972 27.7959C40.6038 27.5922 40.5592 27.39 40.4676 27.2079C40.386 27.0542 40.2741 26.9186 40.1387 26.8092C40.0017 26.7079 39.8459 26.6351 39.6803 26.5949C39.4445 26.5395 39.2026 26.5144 38.9604 26.5202L37.9859 26.5224ZM37.9859 25.7948H38.9328C39.1187 25.8107 39.3059 25.788 39.4826 25.7279C39.6593 25.6679 39.8216 25.5719 39.9593 25.446C40.0656 25.344 40.1533 25.2243 40.2185 25.0922C40.2908 24.9378 40.3283 24.7693 40.3283 24.5988C40.3283 24.4283 40.2908 24.2599 40.2185 24.1055C40.1533 23.9734 40.0656 23.8536 39.9593 23.7516C39.6825 23.5262 39.328 23.4188 38.9726 23.4526H37.9859V25.7948ZM44.0767 27.3497C44.0644 27.7348 44.1323 28.1184 44.2761 28.4759C44.3613 28.694 44.5131 28.8798 44.7099 29.0068C44.9067 29.1338 45.1385 29.1957 45.3724 29.1835C45.6754 29.1827 45.9745 29.1164 46.2495 28.9892C46.5424 28.8538 46.7961 28.6463 46.987 28.3862L47.5252 28.8048C47.2764 29.1519 46.9552 29.4409 46.5839 29.652C46.1374 29.8973 45.633 30.0178 45.1238 30.0008C44.6852 30.0135 44.2507 29.9122 43.863 29.7068C43.5128 29.5093 43.2325 29.2081 43.0607 28.8447C42.9567 28.628 42.8823 28.3984 42.8392 28.1619C42.7907 27.8906 42.7674 27.6153 42.7694 27.3397C42.7199 26.5671 42.9459 25.8019 43.4073 25.1802C43.6331 24.9224 43.9149 24.7196 44.2311 24.5876C44.5474 24.4555 44.8897 24.3976 45.2318 24.4183C45.5647 24.4144 45.8956 24.4707 46.2085 24.5844C46.4889 24.6835 46.7433 24.8445 46.953 25.0554C47.1626 25.2662 47.3221 25.5216 47.4195 25.8026C47.534 26.1239 47.5903 26.4631 47.5856 26.8043C47.5856 26.8781 47.5839 26.9495 47.5806 27.0185C47.5773 27.0876 47.569 27.1983 47.5557 27.3508L44.0767 27.3497ZM45.2129 25.1071C44.5286 25.1071 44.1531 25.6424 44.0867 26.7129H46.2794V26.4538C46.303 26.0997 46.2054 25.7482 46.0025 25.4571C45.9079 25.3402 45.7869 25.2474 45.6494 25.1864C45.512 25.1254 45.362 25.0978 45.2118 25.106L45.2129 25.1071ZM52.3392 27.2301C52.3392 27.0174 52.3359 26.8329 52.3292 26.6763C52.3226 26.5198 52.3143 26.3836 52.3043 26.2677C52.2973 26.1683 52.2806 26.0698 52.2545 25.9737C52.2342 25.9023 52.2093 25.8324 52.1797 25.7644C52.0986 25.605 51.9718 25.4735 51.8156 25.3865C51.6594 25.2995 51.4808 25.2611 51.3026 25.276C51.1144 25.2766 50.9293 25.3246 50.7644 25.4155C50.5932 25.5071 50.4515 25.6453 50.3558 25.8142C50.2936 25.9306 50.2467 26.0546 50.2163 26.183C50.1727 26.3691 50.1526 26.56 50.1565 26.7511V29.1525L50.8242 29.3419V29.9H48.1243V29.3419L48.8918 29.1525V22.8735L48.1243 22.6841V22.126H50.1576V25.4549C50.3172 25.1488 50.5509 24.8876 50.8375 24.6952C51.1136 24.512 51.4381 24.4156 51.7694 24.4183C52.0145 24.4122 52.2588 24.4475 52.492 24.523C52.6869 24.5917 52.8628 24.7055 53.0053 24.8552C53.2266 25.096 53.3827 25.3893 53.4588 25.7074C53.5662 26.1627 53.6148 26.63 53.6033 27.0977V29.1525L54.3707 29.3419V29.9H51.6681V29.3419L52.3359 29.1525L52.3392 27.2301ZM56.1764 27.3497C56.1641 27.7348 56.2319 28.1184 56.3757 28.4759C56.4615 28.6932 56.6134 28.8781 56.8099 29.0045C57.0064 29.1309 57.2376 29.1924 57.471 29.1802C57.7739 29.1793 58.0731 29.113 58.348 28.9859C58.6415 28.8514 58.896 28.6447 59.0878 28.3851L59.626 28.8037C59.3771 29.1508 59.056 29.4398 58.6847 29.6509C58.2382 29.8962 57.7338 30.0167 57.2246 29.9997C56.7859 30.0124 56.3515 29.9111 55.9638 29.7057C55.6117 29.509 55.3296 29.2077 55.1565 28.8436C55.0525 28.6269 54.978 28.3973 54.935 28.1608C54.8865 27.8895 54.8632 27.6142 54.8652 27.3386C54.8156 26.566 55.0417 25.8008 55.5031 25.1791C55.7294 24.9209 56.0119 24.7181 56.3288 24.5862C56.6458 24.4543 56.9888 24.3969 57.3314 24.4183C57.6644 24.4144 57.9953 24.4707 58.3082 24.5844C58.5885 24.6835 58.843 24.8445 59.0526 25.0554C59.2623 25.2662 59.4217 25.5216 59.5191 25.8026C59.6337 26.1239 59.6899 26.4631 59.6853 26.8043C59.6853 26.8781 59.6836 26.9495 59.6803 27.0185C59.677 27.0876 59.6686 27.1983 59.6554 27.3508L56.1764 27.3497ZM57.3126 25.1071C56.6282 25.1071 56.2528 25.6424 56.1864 26.7129H58.3791V26.4538C58.4027 26.0997 58.305 25.7482 58.1022 25.4571C58.0076 25.3402 57.8865 25.2474 57.7491 25.1864C57.6116 25.1254 57.4617 25.0978 57.3115 25.106L57.3126 25.1071ZM61.11 25.2666L60.3425 25.0772V24.518H62.0778L62.2993 25.5147H62.3392C62.5238 25.1846 62.7909 24.9082 63.1144 24.7123C63.424 24.5199 63.7814 24.4181 64.1459 24.4183C64.3988 24.4126 64.6495 24.4655 64.8785 24.5728C65.0648 24.6565 65.225 24.7891 65.342 24.9565C65.4634 25.1603 65.551 25.3825 65.6011 25.6143C65.7963 25.254 66.0813 24.9502 66.4283 24.7323C66.7535 24.5269 67.1302 24.4181 67.5147 24.4183C67.7633 24.4141 68.0096 24.4669 68.2345 24.5728C68.4343 24.6646 68.6038 24.8116 68.7229 24.9964C68.7883 25.1018 68.8386 25.2159 68.8724 25.3353C68.9182 25.4969 68.9515 25.6619 68.9721 25.8286C68.9987 26.0246 69.0171 26.2555 69.0274 26.5213C69.0378 26.7871 69.0428 27.0994 69.0424 27.4582V29.1525L69.8098 29.3419V29.9H67.0989V29.3419L67.7667 29.1525V27.2289C67.7667 27.0163 67.7633 26.8318 67.7567 26.6752C67.75 26.5187 67.7401 26.3825 67.7268 26.2666C67.7165 26.1676 67.6998 26.0694 67.677 25.9726C67.6597 25.9009 67.6364 25.8309 67.6072 25.7633C67.5582 25.6264 67.4654 25.5096 67.3431 25.431C67.2389 25.3694 67.1202 25.3367 66.9992 25.3364C66.8435 25.3337 66.6886 25.3573 66.5407 25.4061C66.397 25.4595 66.2653 25.5408 66.1531 25.6453C66.0108 25.7727 65.8999 25.9313 65.8292 26.1088C65.7512 26.3282 65.7091 26.5587 65.7046 26.7915V29.1525L66.3724 29.3419V29.9H63.77V29.3419L64.4377 29.1525V27.2289C64.4377 27.0163 64.4344 26.8318 64.4278 26.6752C64.4211 26.5187 64.4112 26.3825 64.3979 26.2666C64.3876 26.1676 64.3709 26.0694 64.348 25.9726C64.3308 25.9009 64.3075 25.8309 64.2783 25.7633C64.2293 25.6264 64.1365 25.5096 64.0142 25.431C63.91 25.3694 63.7913 25.3367 63.6703 25.3364C63.5146 25.3337 63.3596 25.3573 63.2118 25.4061C63.0681 25.4595 62.9364 25.5408 62.8242 25.6453C62.6819 25.7727 62.571 25.9313 62.5003 26.1088C62.4223 26.3282 62.3802 26.5587 62.3757 26.7915V29.1525L63.0435 29.3419V29.9H60.3414V29.3419L61.1088 29.1525L61.11 25.2666ZM75.502 27.2101C75.5047 27.6177 75.4425 28.0231 75.3176 28.4111C75.2098 28.7597 75.0279 29.0808 74.7844 29.3524C74.5686 29.5828 74.2976 29.7543 73.997 29.8508C73.2865 30.0501 72.5348 30.0501 71.8242 29.8508C71.5237 29.7543 71.2527 29.5828 71.0369 29.3524C70.7933 29.0808 70.6114 28.7597 70.5036 28.4111C70.2578 27.6293 70.2578 26.7909 70.5036 26.0091C70.6114 25.6606 70.7933 25.3395 71.0369 25.0678C71.2527 24.8374 71.5237 24.6659 71.8242 24.5695C72.5348 24.3702 73.2865 24.3702 73.997 24.5695C74.2976 24.6659 74.5686 24.8374 74.7844 25.0678C75.0279 25.3395 75.2098 25.6606 75.3176 26.0091C75.442 26.3968 75.5038 26.8019 75.5009 27.209L75.502 27.2101ZM72.0036 28.9344C72.1189 29.06 72.2591 29.1604 72.4152 29.229C72.5714 29.2977 72.7401 29.3331 72.9106 29.3331C73.0812 29.3331 73.2499 29.2977 73.406 29.229C73.5621 29.1604 73.7023 29.06 73.8176 28.9344C74.075 28.3981 74.1851 27.803 74.1365 27.2101C74.1851 26.6173 74.075 26.0221 73.8176 25.4859C73.7023 25.3602 73.5621 25.2599 73.406 25.1912C73.2499 25.1226 73.0812 25.0871 72.9106 25.0871C72.7401 25.0871 72.5714 25.1226 72.4152 25.1912C72.2591 25.2599 72.1189 25.3602 72.0036 25.4859C71.7462 26.0221 71.6362 26.6173 71.6847 27.2101C71.636 27.8025 71.7457 28.3972 72.0025 28.9333L72.0036 28.9344ZM75.9206 24.6575L76.8973 24.518L77.0169 23.2821L78.152 23.1226V24.518H79.4256V25.1658H78.152V28.425C78.152 28.6509 78.1554 28.8054 78.162 28.8884C78.1659 28.958 78.1793 29.0268 78.2019 29.0927C78.2257 29.1359 78.2654 29.1681 78.3126 29.1824C78.3968 29.2064 78.4843 29.2165 78.5717 29.2123H79.2694V29.6509C78.934 29.7577 78.593 29.8458 78.2478 29.915C78.0166 29.9641 77.7814 29.9924 77.5452 29.9997C77.4212 30.0134 77.2963 29.9843 77.1911 29.9173C77.0859 29.8502 77.0069 29.7491 76.9671 29.6309C76.93 29.5335 76.9081 29.431 76.9023 29.327C76.8923 29.204 76.8874 29.0163 76.8874 28.7638V25.1647H75.9206V24.6575ZM83.9139 27.2289C83.9139 27.0163 83.9106 26.8318 83.904 26.6752C83.8973 26.5187 83.889 26.3825 83.8791 26.2666C83.872 26.1672 83.8553 26.0687 83.8292 25.9726C83.809 25.9012 83.784 25.8313 83.7545 25.7633C83.6733 25.6039 83.5466 25.4724 83.3904 25.3854C83.2342 25.2984 83.0556 25.26 82.8774 25.2749C82.6891 25.2755 82.504 25.3235 82.3392 25.4144C82.168 25.5059 82.0263 25.6442 81.9306 25.8131C81.8684 25.9295 81.8215 26.0535 81.791 26.1819C81.7475 26.368 81.7274 26.5589 81.7312 26.75V29.1525L82.399 29.3419V29.9H79.6969V29.3419L80.4643 29.1525V22.8735L79.6969 22.6841V22.126H81.7301V25.4549C81.8905 25.1485 82.1252 24.8872 82.4128 24.6952C82.6889 24.512 83.0134 24.4156 83.3447 24.4183C83.5898 24.4122 83.8341 24.4475 84.0673 24.523C84.2622 24.5917 84.4381 24.7055 84.5806 24.8552C84.8019 25.096 84.958 25.3893 85.0341 25.7074C85.1415 26.1627 85.1901 26.63 85.1786 27.0977V29.1525L85.9461 29.3419V29.9H83.2451V29.3419L83.9128 29.1525L83.9139 27.2289ZM88.4898 29.3917C88.6473 29.3927 88.8044 29.3759 88.9582 29.3419C89.092 29.3133 89.2211 29.2663 89.342 29.2024C89.4445 29.1487 89.5333 29.0719 89.6011 28.9781C89.6639 28.8893 89.6971 28.7829 89.6958 28.6741C89.6977 28.5466 89.6535 28.4227 89.5712 28.3253C89.4793 28.2186 89.3676 28.1306 89.2423 28.0662C89.0953 27.9885 88.9419 27.9234 88.7838 27.8718C88.6144 27.8153 88.4466 27.76 88.2805 27.7057C88.0743 27.6458 87.8727 27.5708 87.6775 27.4814C87.486 27.3946 87.308 27.2805 87.1493 27.1426C86.9941 27.0076 86.8671 26.8433 86.7755 26.6592C86.6783 26.4538 86.6305 26.2285 86.636 26.0014C86.6282 25.7826 86.6709 25.5649 86.7608 25.3653C86.8506 25.1657 86.9853 24.9894 87.1542 24.8502C87.5827 24.5351 88.1086 24.3816 88.6393 24.4167C88.9182 24.4134 89.1964 24.4469 89.4665 24.5163C89.691 24.573 89.9036 24.6692 90.0944 24.8004C90.2596 24.9151 90.3975 25.0648 90.4981 25.2389C90.5943 25.4075 90.6441 25.5985 90.6426 25.7926C90.6496 25.8886 90.6368 25.985 90.6051 26.0758C90.5734 26.1667 90.5234 26.2501 90.4582 26.3209C90.3905 26.3827 90.311 26.4304 90.2246 26.4612C90.1382 26.492 90.0465 26.5053 89.9549 26.5003C89.7755 26.511 89.5984 26.4561 89.4566 26.3458C89.4012 26.3025 89.3564 26.2474 89.3253 26.1844C89.2942 26.1214 89.2778 26.0522 89.2772 25.982C89.2779 25.8666 89.3126 25.7539 89.3768 25.6581C89.4403 25.5578 89.5299 25.4768 89.636 25.4239C89.5394 25.2947 89.4105 25.1933 89.2622 25.1298C89.0773 25.0546 88.8787 25.019 88.6792 25.0252C88.431 25.006 88.184 25.0748 87.9815 25.2195C87.9046 25.2868 87.844 25.3706 87.8043 25.4647C87.7645 25.5588 87.7468 25.6607 87.7523 25.7627C87.744 25.8752 87.7632 25.988 87.8084 26.0913C87.8535 26.1947 87.9232 26.2854 88.0114 26.3557C88.2231 26.5038 88.4593 26.6134 88.7091 26.6797C88.9748 26.7594 89.2373 26.8425 89.4964 26.9288C89.7391 27.0076 89.9716 27.1146 90.1891 27.2478C90.3831 27.3657 90.5496 27.5237 90.6775 27.7112C90.8049 27.9089 90.8692 28.1406 90.8619 28.3757C90.8661 28.6192 90.8022 28.8591 90.6775 29.0684C90.5502 29.2753 90.3761 29.4494 90.1692 29.5767C89.9333 29.7212 89.676 29.8272 89.4067 29.8906C89.0968 29.9662 88.7789 30.0034 88.4599 30.0014C87.94 30.0308 87.4227 29.9096 86.9699 29.6525C86.8052 29.556 86.6691 29.4175 86.5754 29.2511C86.4817 29.0848 86.4338 28.8966 86.4366 28.7057C86.4298 28.5894 86.4465 28.4729 86.4859 28.3633C86.5253 28.2536 86.5865 28.1531 86.6659 28.0678C86.7367 27.9942 86.8219 27.9359 86.9162 27.8964C87.0105 27.857 87.1119 27.8373 87.2141 27.8386C87.3718 27.8382 87.5261 27.8851 87.657 27.9731C87.7219 28.0134 87.775 28.0701 87.8109 28.1375C87.8468 28.2048 87.8642 28.2805 87.8613 28.3569C87.8595 28.4815 87.821 28.6028 87.7506 28.7057C87.6887 28.8075 87.6033 28.893 87.5014 28.9549C87.5865 29.0785 87.6991 29.1809 87.8303 29.2539C88.0338 29.3582 88.2616 29.4058 88.4898 29.3917Z" fill="white"/>
<path fill-rule="evenodd" clip-rule="evenodd" d="M21.2569 13.1334H17.4662V8.3948H26.9435C26.9435 9.33112 24.5343 13.1334 21.2569 13.1334ZM0 1.62458V0L5.52326 0.0110742V0.0055371L20.3588 0C24.5033 0 26.9435 3.28904 26.9435 4.73865H3.92636C3.92636 3.21152 2.8505 1.62458 0 1.62458ZM3.92636 8.3948H13.2686V13.1334H3.92636V8.3948ZM13.2686 21.5277H3.92636V16.789H13.2686V21.5277ZM17.4657 16.789H21.6628C25.9169 16.789 28.0266 20.1955 28.0266 21.5277H17.4662L17.4657 16.789ZM3.92636 25.1838H13.2686V27.2148H17.4657V25.1838L28.0266 25.1872C28.0266 26.8588 24.9873 29.923 21.7985 29.923H0V28.2979C2.8278 28.2979 3.92636 26.8029 3.92636 25.1838Z" fill="#3672FF"/>
</g>
<defs>
<clipPath id="clip0_57465_59720">
<rect width="90.8527" height="30" fill="white"/>
</clipPath>
</defs>
</svg>
