<svg width="138" height="32" viewBox="0 0 138 32" fill="none" xmlns="http://www.w3.org/2000/svg">
<g clip-path="url(#clip0_2120_4413)">
<path d="M113.456 25.1239C113.496 25.2543 113.524 25.3876 113.541 25.5225C113.58 26.8076 113.621 28.0927 113.641 29.3778C113.653 30.0623 113.594 30.1159 112.952 30.3414C111.344 30.8559 109.679 31.1811 107.993 31.3101C105.837 31.6029 103.642 31.4562 101.546 30.8793C98.3698 29.9106 96.2409 27.9382 95.6717 24.6521C95.2652 22.6026 95.3198 20.4909 95.8316 18.4643C96.3435 16.4377 97.3002 14.5451 98.6351 12.9186C100.292 10.8245 102.646 9.36784 105.287 8.80314C107.556 8.24088 109.948 8.4056 112.114 9.27318C114.719 10.3452 116.071 12.3937 116.506 15.0654C116.778 17.1568 116.665 19.2788 116.174 21.3314C116.048 21.9587 115.983 21.9956 115.229 21.996C111.09 21.9988 106.951 21.9988 102.811 21.996C101.708 21.996 101.641 22.0883 101.946 23.1492C102.099 23.6749 102.373 24.1592 102.747 24.5652C103.12 24.9711 103.584 25.288 104.101 25.4916C105.223 25.9492 106.437 26.1455 107.65 26.0649C109.519 26.0248 111.372 25.714 113.149 25.1424C113.25 25.1256 113.354 25.1194 113.456 25.1239ZM102.533 17.6951H103.427C105.521 17.6976 107.615 17.6997 109.709 17.7016C109.884 17.7252 110.062 17.7161 110.233 17.6748C110.388 17.6093 110.603 17.4483 110.609 17.3178C110.71 15.7495 110.011 14.0206 108.009 13.6936C105.431 13.271 103.188 14.8057 102.533 17.6951Z" fill="white"/>
<path d="M121.472 14.4664C121.441 13.4082 121.407 12.4243 121.386 11.4399C121.375 10.945 121.383 10.45 121.386 9.9551C121.371 9.81889 121.412 9.68261 121.499 9.57549C121.586 9.46838 121.712 9.39898 121.851 9.38219C123.908 8.87914 126.014 8.59307 128.133 8.52884C129.595 8.45232 131.062 8.55928 132.497 8.84712C134.117 9.2249 135.539 9.89605 136.486 11.3112C137.226 12.4478 137.575 13.7867 137.483 15.132C137.404 16.7769 137.146 18.4162 136.921 20.0519C136.522 22.9686 136.088 25.8811 135.669 28.7949C135.641 28.991 135.622 29.1888 135.592 29.384C135.463 30.1801 135.448 30.176 134.619 30.3499C131.562 31.0091 128.438 31.3209 125.308 31.2789C123.793 31.2823 122.287 31.0571 120.842 30.6114C118.396 29.8033 117.138 28.0712 117.118 25.5245C117.098 23.1217 117.841 21.0451 119.759 19.4661C120.903 18.5609 122.258 17.9463 123.702 17.6768C125.947 17.1819 128.268 17.1099 130.541 17.4646C131.137 17.5601 131.241 17.4582 131.283 16.8535C131.377 15.4539 130.819 14.1698 129.052 13.8206C127.655 13.5931 126.229 13.6019 124.835 13.8464C123.841 13.9848 122.864 14.2413 121.879 14.4415C121.744 14.4574 121.608 14.4657 121.472 14.4664ZM123.808 25.5263C124.227 25.9595 124.781 26.2427 125.383 26.3308C126.757 26.6827 128.136 26.4083 129.513 26.3622C129.862 26.3502 129.961 26.1264 130.002 25.8192C130.156 24.6688 130.34 23.5221 130.493 22.3712C130.577 21.7393 130.564 21.6793 129.902 21.6276C128.901 21.5404 127.896 21.5096 126.892 21.5354C126.334 21.5277 125.782 21.6426 125.275 21.8715C124.769 22.1004 124.321 22.4376 123.965 22.8583C123.684 23.1478 123.491 23.508 123.406 23.8989C123.322 24.2898 123.35 24.6961 123.486 25.0724C123.529 25.2394 123.698 25.3759 123.808 25.5263Z" fill="white"/>
<path d="M37.7101 14.4286C37.722 14.2316 37.7457 14.0356 37.7811 13.8414C38.1179 12.4705 38.4745 11.1042 38.799 9.73049C38.8215 9.55997 38.9021 9.40191 39.0277 9.28193C39.1533 9.16195 39.3166 9.08709 39.491 9.06948C42.0362 8.52762 44.651 8.37051 47.2447 8.6036C48.6631 8.69385 50.0348 9.1364 51.2307 9.88963C51.8876 10.3334 52.436 10.9144 52.8366 11.5908C53.2373 12.2673 53.4801 13.0223 53.5478 13.8017C53.8009 15.8235 53.4114 17.7986 53.1292 19.7826C52.7243 22.6256 52.3195 25.4686 51.9146 28.3115C51.8478 28.777 51.7622 29.2405 51.7044 29.7073C51.704 29.8564 51.6465 29.9998 51.5432 30.1091C51.4399 30.2184 51.2985 30.2856 51.147 30.2973C48.8854 30.6811 46.6379 31.1737 44.3265 31.1857C42.7404 31.1936 41.1505 31.2226 39.5691 31.1295C38.278 31.0716 37.0176 30.7245 35.8846 30.1147C35.1301 29.7282 34.4942 29.1516 34.0425 28.4441C33.5907 27.7367 33.3394 26.9239 33.3144 26.0896C33.1794 24.024 33.5712 22.1028 34.9302 20.4436C35.9346 19.2518 37.2841 18.3868 38.8004 17.9629C41.3189 17.2015 43.9839 17.0277 46.5829 17.4554C47.2588 17.5597 47.406 17.4024 47.4634 16.7271C47.551 16.0824 47.3861 15.4291 47.0021 14.8989C46.618 14.3686 46.0433 14.0008 45.3938 13.8695C43.9934 13.4922 42.5804 13.6467 41.182 13.8174C40.1359 13.9452 39.1081 14.2192 38.0714 14.423C37.9513 14.4343 37.8305 14.4362 37.7101 14.4286ZM44.2272 21.4247C43.2115 21.4119 42.2036 21.6001 41.2638 21.9782C40.7852 22.1841 40.3793 22.5241 40.097 22.9554C39.8148 23.3868 39.6687 23.8902 39.6772 24.4027C39.6527 24.7764 39.7559 25.1474 39.9704 25.4572C40.1848 25.7671 40.4984 25.998 40.8617 26.1136C42.4816 26.7741 44.1454 26.4309 45.7959 26.329C45.9295 26.3207 46.1356 26.0887 46.1605 25.9378C46.3613 24.7164 46.5203 23.4885 46.7066 22.2642C46.7701 21.8445 46.5819 21.6715 46.1812 21.6332C45.5283 21.5691 44.8778 21.4944 44.2272 21.4247Z" fill="white"/>
<path d="M4.29523 30.7762C4.27819 30.4906 4.27976 30.2041 4.29993 29.9187C4.80606 26.3669 5.32489 22.8151 5.83384 19.2633C6.2346 16.4729 6.63004 13.6808 7.02014 10.887C7.13397 10.0788 7.23981 9.2693 7.34517 8.45976C7.43925 7.74847 7.4082 7.70834 6.65795 7.7065C4.94153 7.70235 3.22417 7.7088 1.50964 7.71111H0.512432C0.491502 7.36153 0.493858 7.01099 0.519488 6.66171C0.691647 5.43795 0.89344 4.21696 1.08112 2.99735C1.19966 2.22471 1.23682 2.18228 2.03317 2.18228C8.97347 2.18013 15.9139 2.18013 22.8545 2.18228C23.0958 2.18228 23.3371 2.22195 23.6725 2.25147L22.8907 7.65714C22.5643 7.67605 22.2957 7.70327 22.0271 7.70327C19.6799 7.70696 17.3327 7.70819 14.9855 7.70696C14.1247 7.70696 14.1026 7.70696 13.9822 8.54279C13.6506 10.8441 13.3434 13.1495 13.0175 15.4518C12.7296 17.4855 12.429 19.517 12.1336 21.5493C11.726 24.3646 11.3174 27.18 10.9078 29.9953C10.7893 30.8177 10.7921 30.8256 9.98918 30.8256C8.34912 30.8311 6.70875 30.8311 5.06806 30.8256C4.82299 30.8306 4.57793 30.796 4.29523 30.7762Z" fill="white"/>
<path d="M94.1349 26.1256C93.8997 26.9052 93.7003 27.586 93.4886 28.2627C93.2374 29.0667 92.9712 29.8652 92.7214 30.6701C92.6339 30.9529 92.5192 31.1775 92.1725 31.1817C90.3507 31.2869 88.5323 30.9252 86.8963 30.1323C85.1634 29.2143 84.5792 27.6677 84.5594 25.8503C84.5535 25.2321 84.5955 24.6143 84.685 24.0024C85.3285 19.57 85.9936 15.1413 86.6432 10.7099C87.1239 7.42959 87.5954 4.14808 88.0576 0.86535C88.0551 0.779658 88.072 0.694485 88.107 0.615945C88.1421 0.537405 88.1944 0.467447 88.2603 0.411092C88.3262 0.354736 88.4039 0.313382 88.488 0.289998C88.5722 0.266614 88.6605 0.26178 88.7467 0.275842C89.7289 0.270306 90.712 0.24632 91.6927 0.196502C92.4924 0.155449 93.292 0.0627333 94.0917 0C94.2405 0.00176304 94.389 0.0137854 94.5362 0.035979C94.5505 0.255979 94.5493 0.476694 94.5324 0.696523C93.8952 4.92917 93.2541 9.16121 92.609 13.3926C92.127 16.573 91.6491 19.7539 91.1753 22.9355C91.1105 23.325 91.1065 23.7219 91.1635 24.1126C91.3658 25.2884 92.2304 25.7783 93.3216 25.9956C93.539 26.0389 93.7615 26.0666 94.1349 26.1256Z" fill="white"/>
<path d="M35.2995 11.557C35.0173 12.3762 34.7383 13.1973 34.4458 14.0133C34.2529 14.5506 34.1918 14.5843 33.6212 14.4778C33.1038 14.3804 32.5863 14.2623 32.0689 14.1493C30.6784 13.8788 29.2472 13.8788 27.8567 14.1493C27.6691 14.1589 27.4924 14.2386 27.3629 14.372C27.2334 14.5054 27.161 14.6824 27.1605 14.8666C27.0467 15.7255 26.9117 16.5816 26.7899 17.4396C26.1912 21.6563 25.5926 25.8725 24.9939 30.0882C24.8839 30.8627 24.874 30.8677 24.1101 30.8696C22.4691 30.8739 20.8278 30.8739 19.1862 30.8696C18.9919 30.8696 18.7972 30.8373 18.5413 30.8142C18.6706 29.8917 18.7915 29.0153 18.9176 28.1389C19.339 25.1744 19.7616 22.2099 20.1852 19.2455C20.586 16.452 21.0004 13.6599 21.3852 10.8646C21.3974 10.6677 21.475 10.4802 21.6063 10.3307C21.7375 10.1812 21.9152 10.0781 22.1119 10.0371C24.1068 9.41484 26.156 8.97461 28.2335 8.72198C30.4713 8.48975 32.7329 8.62365 34.926 9.11822C35.2595 9.19294 35.5789 9.32671 35.9641 9.45264L35.6048 10.6579L35.4444 11.2544V11.2502L35.2995 11.557Z" fill="white"/>
<path d="M73.5237 30.7055C73.5425 30.4366 73.543 30.1695 73.583 29.9089C74.0919 26.584 74.6112 23.261 75.1197 19.9362C75.4861 17.5412 75.8366 15.1435 76.2016 12.7486C76.3135 12.0184 76.3262 12.0105 77.0421 12.0105C78.6571 12.0059 80.2721 12.0072 81.887 12.0142C82.0818 12.0142 82.2765 12.0493 82.5221 12.0728C82.5401 12.3475 82.5387 12.6231 82.5178 12.8976C81.8907 17.0798 81.2578 21.262 80.6194 25.4442C80.3738 27.0587 80.1114 28.6676 79.8668 30.2812C79.8169 30.6151 79.7181 30.8398 79.3159 30.8347C77.4998 30.8227 75.6832 30.8236 73.8671 30.8139C73.7484 30.7923 73.633 30.7559 73.5237 30.7055Z" fill="white"/>
<path d="M57.4319 16.7324C57.5457 15.986 57.6422 15.3094 57.7527 14.635C58.089 12.5837 58.375 10.5227 58.7828 8.48527C59.0107 7.11218 59.5294 5.80114 60.3054 4.6366C61.0815 3.47206 62.0977 2.47986 63.2886 1.72391C65.0056 0.705914 66.9738 0.167875 68.9802 0.168032C70.8009 0.0936855 72.6187 0.371745 74.3298 0.986334C74.9234 1.1999 74.9512 1.25849 74.7245 1.84799C74.2434 3.09712 73.7599 4.34518 73.2738 5.59215C73.0358 6.20334 73.0005 6.16552 72.3241 6.00131C71.4098 5.72854 70.4661 5.5612 69.5122 5.50267C66.9975 5.48606 65.5958 6.5433 65.0619 8.96684C64.9362 9.47198 64.8525 9.9863 64.8117 10.5047C64.8142 10.7503 64.7372 10.9904 64.5917 11.1903C64.4463 11.3903 64.2398 11.5398 64.0022 11.6173C61.8181 12.6074 59.8839 14.0581 58.3374 15.8657C58.1069 16.1263 57.8853 16.3952 57.6581 16.6586C57.6426 16.6738 57.6116 16.6743 57.4319 16.7324Z" fill="white"/>
<path d="M123.966 22.8613C123.759 23.2727 123.638 23.7208 123.611 24.1788C123.584 24.6368 123.652 25.0955 123.809 25.5275C123.699 25.3771 123.53 25.241 123.487 25.0741C123.35 24.6979 123.323 24.2919 123.407 23.9013C123.492 23.5107 123.685 23.1507 123.966 22.8613Z" fill="white"/>
<path d="M54.1566 31.9531C54.1452 31.7629 54.1461 31.5721 54.1594 31.382C54.5788 28.3389 55.3759 25.3574 56.5329 22.5039C57.9751 19.0503 60.1548 16.1572 63.3911 14.1377C64.4005 13.5804 65.4502 13.0963 66.5318 12.6893C67.1903 12.4024 67.2294 12.3402 66.8832 11.7207C66.774 11.5256 66.6536 11.336 66.5468 11.1399C66.4529 10.9712 66.4097 10.7798 66.4224 10.5879C66.435 10.3961 66.503 10.2117 66.6184 10.0562C66.7338 9.90081 66.8918 9.78072 67.0741 9.70994C67.2564 9.63916 67.4554 9.62062 67.648 9.65647C68.1184 9.74227 68.5845 9.84928 69.0493 9.96091C70.372 10.2792 71.6956 10.5961 73.0146 10.9296C73.9729 11.1728 74.2782 11.7477 73.9304 12.6543C73.3372 14.206 72.7272 15.7513 72.1307 17.3016C71.9609 17.7426 71.722 18.1384 71.2055 18.1721C70.9764 18.1789 70.75 18.1228 70.5517 18.0101C70.3535 17.8973 70.1913 17.7325 70.0836 17.5341C69.9505 17.333 69.7943 17.1462 69.5742 16.8542C68.5864 17.5572 67.6085 18.167 66.7336 18.8976C64.5522 20.6865 62.8983 23.0149 61.9432 25.6415C61.3344 27.3989 60.8964 29.2088 60.6351 31.0471C60.533 31.6989 60.5081 31.751 59.8477 31.7824C58.1857 31.8614 56.5237 31.9334 54.8617 31.9983C54.6636 32.0089 54.4632 31.9752 54.1566 31.9531Z" fill="white"/>
<path d="M81.6791 0.649414C83.9102 0.684932 85.3011 2.16101 85.1633 4.33407C85.1117 5.01385 84.9026 5.67311 84.5519 6.26163C84.2012 6.85015 83.7181 7.35238 83.1394 7.73005C82.5607 8.10772 81.9018 8.35086 81.2128 8.44094C80.5238 8.53101 79.8229 8.46565 79.1636 8.24983C78.5701 8.06475 78.0503 7.70275 77.6766 7.21425C77.303 6.72576 77.094 6.13511 77.0788 5.52462C76.9466 3.01529 78.418 1.43266 80.2741 0.89066C80.7371 0.782724 81.2063 0.702164 81.6791 0.649414Z" fill="white"/>
</g>
<defs>
<clipPath id="clip0_2120_4413">
<rect width="137" height="32" fill="white" transform="translate(0.498322)"/>
</clipPath>
</defs>
</svg>
