<svg width="32" height="25" viewBox="0 0 32 25" fill="none" xmlns="http://www.w3.org/2000/svg">
<g clip-path="url(#clip0_1_3959)">
<rect width="32" height="24" transform="translate(0 0.457031)" fill="white"/>
<path fill-rule="evenodd" clip-rule="evenodd" d="M0 -0.342773V23.6572H32V-0.342773H0Z" fill="#2E42A5"/>
<mask id="mask0_1_3959" style="mask-type:luminance" maskUnits="userSpaceOnUse" x="0" y="-1" width="32" height="25">
<path fill-rule="evenodd" clip-rule="evenodd" d="M0 -0.342773V23.6572H32V-0.342773H0Z" fill="white"/>
</mask>
<g mask="url(#mask0_1_3959)">
<path d="M-3.56314 21.9428L3.47855 24.9209L32.1598 2.89528L35.8741 -1.5302L28.344 -2.52556L16.6457 6.96591L7.22965 13.3609L-3.56314 21.9428Z" fill="white"/>
<path d="M-2.59912 24.0286L0.988295 25.7568L34.5403 -1.94211H29.5032L-2.59912 24.0286Z" fill="#F50100"/>
<path d="M35.5632 21.9428L28.5215 24.9209L-0.159725 2.89528L-3.87406 -1.5302L3.65602 -2.52556L15.3544 6.96591L24.7704 13.3609L35.5632 21.9428Z" fill="white"/>
<path d="M35.3229 23.4398L31.7355 25.168L17.4487 13.3086L13.213 11.9836L-4.23145 -1.5156H0.805698L18.2403 11.6632L22.8714 13.252L35.3229 23.4398Z" fill="#F50100"/>
<mask id="path-7-inside-1_1_3959" fill="white">
<path d="M19.7776 7.65723H34.0276V15.6572H19.7776V25.6572H12.2219V15.6572H-1.97244V7.65723H12.2219V-2.34277H19.7776V7.65723Z"/>
</mask>
<path d="M19.7776 7.65723H34.0276V15.6572H19.7776V25.6572H12.2219V15.6572H-1.97244V7.65723H12.2219V-2.34277H19.7776V7.65723Z" fill="#F50100"/>
<path d="M19.7776 7.65723H17.7776V9.65723H19.7776V7.65723ZM34.0276 7.65723H36.0276V5.65723H34.0276V7.65723ZM34.0276 15.6572V17.6572H36.0276V15.6572H34.0276ZM19.7776 15.6572V13.6572H17.7776V15.6572H19.7776ZM19.7776 25.6572V27.6572H21.7776V25.6572H19.7776ZM12.2219 25.6572H10.2219V27.6572H12.2219V25.6572ZM12.2219 15.6572H14.2219V13.6572H12.2219V15.6572ZM-1.97244 15.6572H-3.97244V17.6572H-1.97244V15.6572ZM-1.97244 7.65723V5.65723H-3.97244V7.65723H-1.97244ZM12.2219 7.65723V9.65723H14.2219V7.65723H12.2219ZM12.2219 -2.34277V-4.34277H10.2219V-2.34277H12.2219ZM19.7776 -2.34277H21.7776V-4.34277H19.7776V-2.34277ZM19.7776 7.65723V9.65723H34.0276V7.65723V5.65723H19.7776V7.65723ZM34.0276 7.65723H32.0276V15.6572H34.0276H36.0276V7.65723H34.0276ZM34.0276 15.6572V13.6572H19.7776V15.6572V17.6572H34.0276V15.6572ZM19.7776 15.6572H17.7776V25.6572H19.7776H21.7776V15.6572H19.7776ZM19.7776 25.6572V23.6572H12.2219V25.6572V27.6572H19.7776V25.6572ZM12.2219 25.6572H14.2219V15.6572H12.2219H10.2219V25.6572H12.2219ZM12.2219 15.6572V13.6572H-1.97244V15.6572V17.6572H12.2219V15.6572ZM-1.97244 15.6572H0.0275574V7.65723H-1.97244H-3.97244V15.6572H-1.97244ZM-1.97244 7.65723V9.65723H12.2219V7.65723V5.65723H-1.97244V7.65723ZM12.2219 7.65723H14.2219V-2.34277H12.2219H10.2219V7.65723H12.2219ZM12.2219 -2.34277V-0.342773H19.7776V-2.34277V-4.34277H12.2219V-2.34277ZM19.7776 -2.34277H17.7776V7.65723H19.7776H21.7776V-2.34277H19.7776Z" fill="white" mask="url(#path-7-inside-1_1_3959)"/>
</g>
</g>
<defs>
<clipPath id="clip0_1_3959">
<rect width="32" height="24" fill="white" transform="translate(0 0.457031)"/>
</clipPath>
</defs>
</svg>
