<svg width="32" height="25" viewBox="0 0 32 25" fill="none" xmlns="http://www.w3.org/2000/svg">
<g clip-path="url(#clip0_1_3951)">
<rect width="32" height="24" transform="translate(0 0.457031)" fill="white"/>
<path fill-rule="evenodd" clip-rule="evenodd" d="M0 -0.342773H32V23.6572H0V-0.342773Z" fill="#E31D1C"/>
<path d="M32 21.6572V23.6572H0V21.6572H32ZM32 19.6572H0V17.6572H32V19.6572ZM32 15.6572H0V13.6572H32V15.6572ZM32 11.6572H0V9.65723H32V11.6572ZM32 7.65723H0V5.65723H32V7.65723ZM32 3.65723H0V1.65723H32V3.65723Z" fill="#F7FCFF"/>
<rect y="-0.342773" width="18" height="14" fill="#2E42A5"/>
<path d="M15.6215 1.85938H16.6703L15.8461 2.69141L16.1655 4.00488L15.1401 3.2666L14.2895 3.85938H14.6703L13.8461 4.69141L14.1303 5.85938H14.726L15.1381 4.78711L15.6215 5.85938H16.6703L15.8461 6.69141L16.1655 8.00488L15.1401 7.2666L14.2895 7.85938H14.6703L13.8461 8.69141L14.1303 9.85938H14.726L15.1381 8.78711L15.6215 9.85938H16.6703L15.8461 10.6914L16.1655 12.0049L15.1401 11.2666L14.0805 12.0049L14.4379 10.6914L13.4965 9.85938H13.9633L13.1401 9.2666L12.2895 9.85938H12.6703L11.8461 10.6914L12.1655 12.0049L11.1401 11.2666L10.0805 12.0049L10.4379 10.6914L9.49651 9.85938H9.9633L9.14006 9.2666L8.28947 9.85938H8.67033L7.84612 10.6914L8.16545 12.0049L7.14006 11.2666L6.08049 12.0049L6.43791 10.6914L5.49651 9.85938H5.9633L5.14006 9.2666L4.28947 9.85938H4.67033L3.84612 10.6914L4.16545 12.0049L3.14006 11.2666L2.08049 12.0049L2.43791 10.6914L1.49651 9.85938H2.726L3.13811 8.78711L3.62151 9.85938H4.12053L4.43791 8.69141L3.49651 7.85938H3.9633L3.14006 7.2666L2.08049 8.00488L2.43791 6.69141L1.49651 5.85938H2.726L3.13811 4.78711L3.62151 5.85938H4.12053L4.43791 4.69141L3.49651 3.85938H3.9633L3.14006 3.2666L2.08049 4.00488L2.43791 2.69141L1.49651 1.85938H2.726L3.13811 0.787109L3.62151 1.85938H4.67033L3.84612 2.69141L4.13029 3.85938H4.726L5.13811 2.78711L5.62151 3.85938H6.12053L6.43791 2.69141L5.49651 1.85938H6.726L7.13811 0.787109L7.62151 1.85938H8.67033L7.84612 2.69141L8.13029 3.85938H8.726L9.13811 2.78711L9.62151 3.85938H10.1205L10.4379 2.69141L9.49651 1.85938H10.726L11.1381 0.787109L11.6215 1.85938H12.6703L11.8461 2.69141L12.1303 3.85938H12.726L13.1381 2.78711L13.6215 3.85938H14.1205L14.4379 2.69141L13.4965 1.85938H14.726L15.1381 0.787109L15.6215 1.85938ZM10.2895 7.85938H10.6703L9.84612 8.69141L10.1303 9.85938H10.726L11.1381 8.78711L11.6215 9.85938H12.1205L12.4379 8.69141L11.4965 7.85938H11.9633L11.1401 7.2666L10.2895 7.85938ZM6.28947 7.85938H6.67033L5.84612 8.69141L6.13029 9.85938H6.726L7.13811 8.78711L7.62151 9.85938H8.12053L8.43791 8.69141L7.49651 7.85938H7.9633L7.14006 7.2666L6.28947 7.85938ZM12.2895 5.85938H12.6703L11.8461 6.69141L12.1303 7.85938H12.726L13.1381 6.78711L13.6215 7.85938H14.1205L14.4379 6.69141L13.4965 5.85938H13.9633L13.1401 5.2666L12.2895 5.85938ZM4.28947 5.85938H4.67033L3.84612 6.69141L4.13029 7.85938H4.726L5.13811 6.78711L5.62151 7.85938H6.12053L6.43791 6.69141L5.49651 5.85938H5.9633L5.14006 5.2666L4.28947 5.85938ZM8.28947 5.85938H8.67033L7.84612 6.69141L8.13029 7.85938H8.726L9.13811 6.78711L9.62151 7.85938H10.1205L10.4379 6.69141L9.49651 5.85938H9.9633L9.14006 5.2666L8.28947 5.85938ZM6.28947 3.85938H6.67033L5.84612 4.69141L6.13029 5.85938H6.726L7.13811 4.78711L7.62151 5.85938H8.12053L8.43791 4.69141L7.49651 3.85938H7.9633L7.14006 3.2666L6.28947 3.85938ZM10.2895 3.85938H10.6703L9.84612 4.69141L10.1303 5.85938H10.726L11.1381 4.78711L11.6215 5.85938H12.1205L12.4379 4.69141L11.4965 3.85938H11.9633L11.1401 3.2666L10.2895 3.85938Z" fill="#F7FCFF"/>
</g>
<defs>
<clipPath id="clip0_1_3951">
<rect width="32" height="24" fill="white" transform="translate(0 0.457031)"/>
</clipPath>
</defs>
</svg>
