<svg width="135" height="32" viewBox="0 0 135 32" fill="none" xmlns="http://www.w3.org/2000/svg">
<path d="M118.258 10.7725C119.008 10.7725 119.625 10.3827 119.709 9.87901L120.449 1.50689C120.449 0.679392 119.479 6.10352e-05 118.261 6.10352e-05C117.043 6.10352e-05 116.074 0.679388 116.074 1.50704L116.814 9.87901C116.896 10.3825 117.513 10.7725 118.261 10.7725H118.258ZM113.733 13.3875C114.109 12.739 114.081 12.0101 113.685 11.6862L106.803 6.85907C106.088 6.44472 105.015 6.94346 104.406 7.99935C103.795 9.05389 103.904 10.2317 104.617 10.6462L112.237 14.194C112.713 14.3705 113.363 14.0307 113.736 13.3826L113.733 13.3875ZM122.787 13.383C123.163 14.0312 123.809 14.3711 124.286 14.1944L131.905 10.6466C132.623 10.2323 132.725 9.05434 132.12 7.9998C131.508 6.94496 130.434 6.44517 129.72 6.85952L122.838 11.6867C122.445 12.01 122.415 12.7396 122.789 13.388L122.787 13.383ZM118.258 21.2306C119.008 21.2306 119.625 21.6171 119.709 22.1213L120.449 30.4922C120.449 31.3222 119.479 32.0001 118.261 32.0001C117.043 32.0001 116.074 31.3222 116.074 30.4922L116.814 22.1213C116.896 21.6171 117.513 21.2306 118.261 21.2306H118.258ZM122.787 18.615C123.163 17.9651 123.809 17.6281 124.286 17.8068L131.905 21.3522C132.623 21.767 132.725 22.9459 132.12 24.0014C131.508 25.0528 130.434 25.5539 129.72 25.1402L122.838 20.3175C122.445 19.9916 122.415 19.2616 122.789 18.6136H122.786M113.733 18.6141C114.109 19.2616 114.081 19.9916 113.685 20.3181L106.803 25.1406C106.088 25.5544 105.015 25.0532 104.406 24.0018C103.795 22.9464 103.904 21.7674 104.617 21.3526L112.237 17.8072C112.713 17.6286 113.363 17.9655 113.736 18.6156H113.733" fill="white"/>
<path d="M74.8519 20.3023C74.8519 20.5592 74.8291 20.8242 74.7587 21.0569C74.4669 22.0235 73.4661 22.8408 72.2141 22.8408C71.1702 22.8408 70.341 22.2478 70.341 20.9954C70.341 19.0785 72.4508 18.5491 74.8525 18.5624L74.8519 20.3021V20.3023ZM78.619 16.9618C78.619 13.801 77.2684 11.0198 72.7049 11.0198C70.3624 11.0198 68.5032 11.6777 67.4884 12.2642L68.2316 14.8052C69.159 14.2197 70.6372 13.735 72.036 13.735C74.3508 13.7286 74.7299 15.0458 74.7299 15.8889V16.0884C69.6841 16.081 66.4945 17.8281 66.4945 21.3873C66.4945 23.5621 68.119 25.599 70.943 25.599C72.6782 25.599 74.1315 24.9064 75.0013 23.7959H75.0872C75.0872 23.7959 75.6627 26.207 78.8399 25.2845C78.6741 24.2818 78.6196 23.2114 78.6196 21.9243L78.6192 16.9618M7.62939e-06 6.71526C7.62939e-06 6.71526 3.29732 20.2263 3.82385 22.419C4.43805 24.9784 5.54502 25.9206 8.73509 25.2845L10.7938 16.9082C11.3159 14.8266 11.6653 13.3424 12.0016 11.2271H12.0602C12.2963 13.3649 12.6314 14.833 13.061 16.9151C13.061 16.9151 13.8986 20.718 14.3283 22.7147C14.7585 24.7109 15.9559 25.9698 19.081 25.2845L23.9868 6.71466H20.0271L18.3514 14.7437C17.9009 17.0798 17.4926 18.9073 17.1774 21.044H17.1214C16.8351 18.9261 16.4704 17.1732 16.0129 14.8965L14.2698 6.71466H10.1433L8.27772 14.6902C7.7497 17.1145 7.25454 19.0712 6.94087 21.1368H6.88381C6.56177 19.1917 6.13309 16.7315 5.66915 14.3859C5.66915 14.3859 4.56158 8.6811 4.17202 6.71466L7.62939e-06 6.71526ZM31.4771 20.3023C31.4771 20.5592 31.4542 20.8242 31.3828 21.0569C31.0915 22.0235 30.0902 22.8408 28.8382 22.8408C27.7941 22.8408 26.9661 22.2478 26.9661 20.9954C26.9661 19.0785 29.0754 18.5491 31.4775 18.5624L31.4771 20.3021V20.3023ZM35.2437 16.9618C35.2437 13.801 33.8931 11.0198 29.3305 11.0198C26.9873 11.0198 25.1267 11.6777 24.1124 12.2642L24.8548 14.8052C25.7821 14.2197 27.2602 13.735 28.6595 13.735C30.9759 13.7286 31.355 15.0458 31.355 15.8889V16.0884C26.3071 16.081 23.119 17.8281 23.119 21.3873C23.119 23.5621 24.7426 25.599 27.5645 25.599C29.3021 25.599 30.7546 24.9064 31.6254 23.7959H31.7102C31.7102 23.7959 32.2874 26.207 35.4639 25.2845C35.2978 24.2818 35.2437 23.2114 35.2437 21.9243V16.9618ZM41.53 21.3426V6.71526H37.7585V25.2851H41.53V21.3426ZM90.8689 6.71526V20.4139C90.8689 22.3034 91.2251 23.6257 91.9847 24.435C92.6503 25.1426 93.7438 25.6005 95.0553 25.6005C96.1707 25.6005 97.2674 25.3877 97.785 25.1958L97.7363 22.2493C97.3512 22.3434 96.9091 22.4196 96.3038 22.4196C95.0187 22.4196 94.5889 21.5963 94.5889 19.9008V14.6594H97.8732V11.1059H94.5889V6.71526H90.8689ZM81.1339 11.3348V25.2851H85.0246V18.1423C85.0246 17.7561 85.0479 17.4198 85.1089 17.1121C85.3968 15.6151 86.5409 14.6594 88.1844 14.6594C88.6349 14.6594 88.9574 14.7084 89.3068 14.758V11.1059C89.0136 11.0475 88.8146 11.0202 88.4499 11.0202C86.998 11.0202 85.3461 11.9571 84.6529 13.9667H84.5478V11.3348H81.1339ZM44.1709 11.3348V25.2851H47.9614V17.1046C47.9614 16.7207 48.0065 16.3147 48.1394 15.9628C48.4536 15.1392 49.2201 14.1746 50.4433 14.1746C51.9736 14.1746 52.6882 15.4677 52.6882 17.3339V25.284H56.4757V17.0039C56.4757 16.6377 56.5257 16.1961 56.634 15.8732C56.945 14.9358 57.7707 14.1735 58.908 14.1735C60.4586 14.1735 61.2029 15.4439 61.2029 17.6405V25.2836H64.993V17.0668C64.993 12.7341 62.7928 11.0189 60.3088 11.0189C59.2098 11.0189 58.3413 11.2942 57.5559 11.7754C56.8965 12.1817 56.305 12.7574 55.7889 13.5141H55.7329C55.1339 12.0107 53.7246 11.0196 51.8881 11.0196C49.5289 11.0196 48.4685 12.2156 47.8253 13.2298H47.7689V11.3343H44.1709" fill="white"/>
<path d="M133.816 24.6067H133.874C133.95 24.6067 133.998 24.5754 133.998 24.5288C133.998 24.4757 133.953 24.4469 133.882 24.4469C133.858 24.4469 133.833 24.4518 133.817 24.4518V24.6081V24.6066L133.816 24.6067ZM133.808 24.9828H133.606V24.3264C133.652 24.3174 133.758 24.3014 133.895 24.3014C134.043 24.3014 134.11 24.3223 134.158 24.3552C134.2 24.3839 134.229 24.4329 134.229 24.499C134.229 24.5664 134.167 24.6235 134.076 24.6484V24.6568C134.151 24.6766 134.191 24.7307 134.213 24.8255C134.233 24.9202 134.245 24.9589 134.258 24.9833H134.03C134.01 24.9589 133.998 24.9008 133.985 24.8429C133.972 24.7764 133.941 24.7431 133.873 24.7431H133.807L133.808 24.9828ZM133.891 24.1125C133.602 24.1125 133.383 24.3482 133.383 24.6487C133.383 24.9415 133.602 25.1803 133.899 25.1803C134.197 25.1852 134.416 24.9416 134.416 24.6439C134.416 24.3476 134.197 24.1125 133.895 24.1125H133.891ZM133.904 23.9343C134.307 23.9343 134.629 24.2518 134.629 24.6438C134.629 25.0403 134.307 25.3583 133.898 25.3583C133.49 25.3583 133.164 25.0399 133.164 24.6439C133.164 24.2518 133.49 23.9344 133.898 23.9344H133.903" fill="white"/>
</svg>
